<svg xmlns="http://www.w3.org/2000/svg" xmlns:xlink="http://www.w3.org/1999/xlink" width="377" zoomAndPan="magnify" viewBox="0 0 283.5 283.500005" height="377" preserveAspectRatio="xMidYMid meet" version="1.0"><defs><g/><clipPath id="4b98300b47"><path d="M 56.886719 28.347656 L 245.136719 28.347656 L 245.136719 254.847656 L 56.886719 254.847656 Z M 56.886719 28.347656 " clip-rule="nonzero"/></clipPath></defs><g clip-path="url(#4b98300b47)"><path fill="#00bf63" d="M 220.101562 103.941406 L 220.101562 66.285156 L 207.546875 66.285156 L 194.992188 53.734375 L 194.992188 41.179688 C 194.996094 34.230469 189.390625 28.628906 182.433594 28.628906 L 69.441406 28.628906 C 62.488281 28.628906 56.886719 34.230469 56.886719 41.179688 L 56.886719 242.011719 C 56.886719 248.285156 63.164062 254.5625 69.441406 254.5625 L 182.433594 254.5625 C 188.714844 254.5625 194.996094 248.285156 194.996094 242.011719 L 194.996094 179.253906 L 201.269531 179.253906 C 207.546875 179.253906 207.546875 185.527344 207.546875 185.527344 L 207.546875 210.628906 C 207.546875 223.183594 213.824219 229.453125 226.378906 229.453125 C 238.933594 229.453125 245.210938 223.183594 245.210938 210.628906 C 245.210938 195.988281 245.210938 154.144531 245.210938 141.59375 C 245.210938 129.046875 220.101562 116.492188 220.101562 103.941406 Z M 169.882812 103.941406 L 81.996094 103.941406 L 81.996094 53.734375 L 169.882812 53.734375 Z M 232.660156 210.628906 C 232.660156 216.90625 226.378906 216.90625 226.378906 216.90625 C 226.378906 216.90625 220.101562 216.90625 220.101562 210.628906 C 220.101562 210.628906 220.101562 185.53125 220.101562 179.253906 C 220.101562 172.972656 213.828125 166.703125 207.550781 166.703125 C 203.363281 166.703125 194.996094 166.703125 194.996094 166.703125 L 194.996094 91.390625 L 207.550781 91.390625 C 207.550781 91.390625 207.550781 101.851562 207.550781 110.214844 C 207.550781 122.765625 232.660156 135.320312 232.660156 147.871094 Z M 232.660156 210.628906 " fill-opacity="1" fill-rule="nonzero"/></g><g fill="#000000" fill-opacity="1"><g transform="translate(84.181097, 203.468864)"><g><path d="M 40.375 -30.8125 C 40.375 -20.21875 38.140625 -12.3125 33.671875 -7.09375 C 29.210938 -1.875 22.460938 0.734375 13.421875 0.734375 C 10.234375 0.734375 7.816406 0.5625 6.171875 0.21875 L 6.171875 -8.890625 C 8.234375 -8.378906 10.390625 -8.125 12.640625 -8.125 C 16.441406 -8.125 19.566406 -8.679688 22.015625 -9.796875 C 24.472656 -10.910156 26.347656 -12.660156 27.640625 -15.046875 C 28.941406 -17.441406 29.691406 -20.734375 29.890625 -24.921875 L 29.453125 -24.921875 C 28.023438 -22.617188 26.378906 -21 24.515625 -20.0625 C 22.660156 -19.132812 20.332031 -18.671875 17.53125 -18.671875 C 12.851562 -18.671875 9.164062 -20.171875 6.46875 -23.171875 C 3.769531 -26.179688 2.421875 -30.359375 2.421875 -35.703125 C 2.421875 -41.460938 4.054688 -46.015625 7.328125 -49.359375 C 10.609375 -52.703125 15.066406 -54.375 20.703125 -54.375 C 24.671875 -54.375 28.144531 -53.441406 31.125 -51.578125 C 34.101562 -49.710938 36.390625 -47.007812 37.984375 -43.46875 C 39.578125 -39.925781 40.375 -35.707031 40.375 -30.8125 Z M 20.921875 -45.265625 C 18.566406 -45.265625 16.726562 -44.453125 15.40625 -42.828125 C 14.082031 -41.210938 13.421875 -38.882812 13.421875 -35.84375 C 13.421875 -33.25 14.019531 -31.191406 15.21875 -29.671875 C 16.414062 -28.148438 18.242188 -27.390625 20.703125 -27.390625 C 23.003906 -27.390625 24.972656 -28.140625 26.609375 -29.640625 C 28.253906 -31.148438 29.078125 -32.890625 29.078125 -34.859375 C 29.078125 -37.773438 28.3125 -40.238281 26.78125 -42.25 C 25.25 -44.257812 23.296875 -45.265625 20.921875 -45.265625 Z M 20.921875 -45.265625 "/></g></g><g transform="translate(127.16282, 203.468864)"><g><path d="M 31.109375 0 L 19.75 0 L 19.75 -31.109375 L 19.859375 -36.21875 L 20.03125 -41.796875 C 18.144531 -39.910156 16.835938 -38.675781 16.109375 -38.09375 L 9.921875 -33.125 L 4.453125 -39.96875 L 21.765625 -53.75 L 31.109375 -53.75 Z M 31.109375 0 "/></g></g></g></svg>