<svg xmlns="http://www.w3.org/2000/svg" xmlns:xlink="http://www.w3.org/1999/xlink" width="377" zoomAndPan="magnify" viewBox="0 0 282.96 283.499996" height="377" preserveAspectRatio="xMidYMid meet" version="1.0"><defs><g/><clipPath id="30b8d5a3bf"><path d="M 57.015625 28.296875 L 256.914062 28.296875 L 256.914062 268.621094 L 57.015625 268.621094 Z M 57.015625 28.296875 " clip-rule="nonzero"/></clipPath></defs><g clip-path="url(#30b8d5a3bf)"><path fill="#00bf63" d="M 230.1875 108.519531 L 230.1875 68.558594 L 216.867188 68.558594 L 203.546875 55.238281 L 203.546875 41.914062 C 203.550781 34.535156 197.601562 28.59375 190.222656 28.59375 L 70.335938 28.59375 C 62.957031 28.59375 57.015625 34.535156 57.015625 41.914062 L 57.015625 255.050781 C 57.015625 261.710938 63.679688 268.371094 70.335938 268.371094 L 190.222656 268.371094 C 196.886719 268.371094 203.550781 261.710938 203.550781 255.050781 L 203.550781 188.445312 L 210.207031 188.445312 C 216.867188 188.445312 216.867188 195.109375 216.867188 195.109375 L 216.867188 221.746094 C 216.867188 235.070312 223.527344 241.726562 236.847656 241.726562 C 250.167969 241.726562 256.828125 235.070312 256.828125 221.746094 C 256.828125 206.207031 256.828125 161.800781 256.828125 148.480469 C 256.828125 135.164062 230.1875 121.839844 230.1875 108.519531 Z M 176.90625 108.519531 L 83.660156 108.519531 L 83.660156 55.238281 L 176.90625 55.238281 Z M 243.511719 221.746094 C 243.511719 228.40625 236.847656 228.40625 236.847656 228.40625 C 236.847656 228.40625 230.1875 228.40625 230.1875 221.746094 C 230.1875 221.746094 230.1875 195.109375 230.1875 188.445312 C 230.1875 181.78125 223.53125 175.128906 216.867188 175.128906 C 212.429688 175.128906 203.550781 175.128906 203.550781 175.128906 L 203.550781 95.199219 L 216.867188 95.199219 C 216.867188 95.199219 216.867188 106.300781 216.867188 115.179688 C 216.867188 128.5 243.511719 141.820312 243.511719 155.144531 Z M 243.511719 221.746094 " fill-opacity="1" fill-rule="nonzero"/></g><g fill="#000000" fill-opacity="1"><g transform="translate(61.041098, 247.824975)"><g><path d="M 75.9375 -57.953125 C 75.9375 -38.035156 71.738281 -23.164062 63.34375 -13.34375 C 54.957031 -3.519531 42.253906 1.390625 25.234375 1.390625 C 19.242188 1.390625 14.707031 1.066406 11.625 0.421875 L 11.625 -16.734375 C 15.488281 -15.765625 19.539062 -15.28125 23.78125 -15.28125 C 30.925781 -15.28125 36.804688 -16.328125 41.421875 -18.421875 C 46.035156 -20.523438 49.5625 -23.820312 52 -28.3125 C 54.445312 -32.8125 55.851562 -39.003906 56.21875 -46.890625 L 55.390625 -46.890625 C 52.710938 -42.554688 49.625 -39.507812 46.125 -37.75 C 42.625 -36 38.242188 -35.125 32.984375 -35.125 C 24.179688 -35.125 17.242188 -37.945312 12.171875 -43.59375 C 7.097656 -49.25 4.5625 -57.097656 4.5625 -67.140625 C 4.5625 -77.972656 7.640625 -86.535156 13.796875 -92.828125 C 19.953125 -99.128906 28.332031 -102.28125 38.9375 -102.28125 C 46.40625 -102.28125 52.9375 -100.523438 58.53125 -97.015625 C 64.132812 -93.515625 68.4375 -88.429688 71.4375 -81.765625 C 74.4375 -75.109375 75.9375 -67.171875 75.9375 -57.953125 Z M 39.34375 -85.125 C 34.914062 -85.125 31.457031 -83.601562 28.96875 -80.5625 C 26.476562 -77.519531 25.234375 -73.140625 25.234375 -67.421875 C 25.234375 -62.535156 26.363281 -58.660156 28.625 -55.796875 C 30.882812 -52.941406 34.320312 -51.515625 38.9375 -51.515625 C 43.269531 -51.515625 46.976562 -52.929688 50.0625 -55.765625 C 53.15625 -58.609375 54.703125 -61.875 54.703125 -65.5625 C 54.703125 -71.039062 53.257812 -75.671875 50.375 -79.453125 C 47.5 -83.234375 43.820312 -85.125 39.34375 -85.125 Z M 39.34375 -85.125 "/></g></g></g><g fill="#000000" fill-opacity="1"><g transform="translate(141.876429, 247.824975)"><g><path d="M 58.5 0 L 37.140625 0 L 37.140625 -58.5 L 37.34375 -68.109375 L 37.6875 -78.625 C 34.132812 -75.070312 31.664062 -72.742188 30.28125 -71.640625 L 18.671875 -62.3125 L 8.375 -75.171875 L 40.9375 -101.09375 L 58.5 -101.09375 Z M 58.5 0 "/></g></g></g><g fill="#000000" fill-opacity="1"><g transform="translate(222.720788, 247.824975)"><g/></g></g></svg>