<svg xmlns="http://www.w3.org/2000/svg" xmlns:xlink="http://www.w3.org/1999/xlink" width="377" zoomAndPan="magnify" viewBox="0 0 283.5 283.500005" height="377" preserveAspectRatio="xMidYMid meet" version="1.0"><defs><g/><clipPath id="8f266f5586"><path d="M 56.789062 28.296875 L 256.683594 28.296875 L 256.683594 268.621094 L 56.789062 268.621094 Z M 56.789062 28.296875 " clip-rule="nonzero"/></clipPath></defs><g clip-path="url(#8f266f5586)"><path fill="#00bf63" d="M 229.957031 108.519531 L 229.957031 68.558594 L 216.636719 68.558594 L 203.316406 55.238281 L 203.316406 41.914062 C 203.320312 34.535156 197.375 28.59375 189.992188 28.59375 L 70.105469 28.59375 C 62.730469 28.59375 56.789062 34.535156 56.789062 41.914062 L 56.789062 255.050781 C 56.789062 261.710938 63.449219 268.371094 70.105469 268.371094 L 189.992188 268.371094 C 196.65625 268.371094 203.320312 261.710938 203.320312 255.050781 L 203.320312 188.445312 L 209.976562 188.445312 C 216.636719 188.445312 216.636719 195.109375 216.636719 195.109375 L 216.636719 221.746094 C 216.636719 235.070312 223.296875 241.726562 236.617188 241.726562 C 249.9375 241.726562 256.601562 235.070312 256.601562 221.746094 C 256.601562 206.207031 256.601562 161.800781 256.601562 148.480469 C 256.601562 135.164062 229.957031 121.839844 229.957031 108.519531 Z M 176.675781 108.519531 L 83.429688 108.519531 L 83.429688 55.238281 L 176.675781 55.238281 Z M 243.285156 221.746094 C 243.285156 228.40625 236.621094 228.40625 236.621094 228.40625 C 236.621094 228.40625 229.960938 228.40625 229.960938 221.746094 C 229.960938 221.746094 229.960938 195.109375 229.960938 188.445312 C 229.960938 181.78125 223.304688 175.128906 216.640625 175.128906 C 212.199219 175.128906 203.320312 175.128906 203.320312 175.128906 L 203.320312 95.199219 L 216.640625 95.199219 C 216.640625 95.199219 216.640625 106.300781 216.640625 115.179688 C 216.640625 128.5 243.285156 141.820312 243.285156 155.144531 Z M 243.285156 221.746094 " fill-opacity="1" fill-rule="nonzero"/></g><g fill="#000000" fill-opacity="1"><g transform="translate(57.910327, 243.646079)"><g><path d="M 73.796875 -56.3125 C 73.796875 -36.957031 69.71875 -22.507812 61.5625 -12.96875 C 53.40625 -3.425781 41.0625 1.34375 24.53125 1.34375 C 18.707031 1.34375 14.296875 1.03125 11.296875 0.40625 L 11.296875 -16.265625 C 15.054688 -15.328125 19 -14.859375 23.125 -14.859375 C 30.0625 -14.859375 35.769531 -15.875 40.25 -17.90625 C 44.738281 -19.945312 48.171875 -23.148438 50.546875 -27.515625 C 52.921875 -31.890625 54.285156 -37.90625 54.640625 -45.5625 L 53.828125 -45.5625 C 51.234375 -41.351562 48.234375 -38.394531 44.828125 -36.6875 C 41.421875 -34.988281 37.164062 -34.140625 32.0625 -34.140625 C 23.5 -34.140625 16.753906 -36.882812 11.828125 -42.375 C 6.898438 -47.863281 4.4375 -55.492188 4.4375 -65.265625 C 4.4375 -75.785156 7.425781 -84.101562 13.40625 -90.21875 C 19.382812 -96.34375 27.53125 -99.40625 37.84375 -99.40625 C 45.09375 -99.40625 51.441406 -97.703125 56.890625 -94.296875 C 62.335938 -90.890625 66.515625 -85.945312 69.421875 -79.46875 C 72.335938 -73 73.796875 -65.28125 73.796875 -56.3125 Z M 38.234375 -82.734375 C 33.941406 -82.734375 30.582031 -81.253906 28.15625 -78.296875 C 25.738281 -75.335938 24.53125 -71.082031 24.53125 -65.53125 C 24.53125 -60.78125 25.625 -57.015625 27.8125 -54.234375 C 30.007812 -51.453125 33.351562 -50.0625 37.84375 -50.0625 C 42.050781 -50.0625 45.65625 -51.441406 48.65625 -54.203125 C 51.65625 -56.960938 53.15625 -60.132812 53.15625 -63.71875 C 53.15625 -69.039062 51.753906 -73.539062 48.953125 -77.21875 C 46.160156 -80.894531 42.585938 -82.734375 38.234375 -82.734375 Z M 38.234375 -82.734375 "/></g></g></g><g fill="#000000" fill-opacity="1"><g transform="translate(136.468706, 243.646079)"><g><path d="M 41.265625 -62.765625 C 50.765625 -62.765625 58.320312 -60.097656 63.9375 -54.765625 C 69.5625 -49.441406 72.375 -42.140625 72.375 -32.859375 C 72.375 -21.890625 68.988281 -13.445312 62.21875 -7.53125 C 55.457031 -1.613281 45.785156 1.34375 33.203125 1.34375 C 22.265625 1.34375 13.4375 -0.425781 6.71875 -3.96875 L 6.71875 -21.90625 C 10.257812 -20.03125 14.378906 -18.5 19.078125 -17.3125 C 23.785156 -16.125 28.25 -15.53125 32.46875 -15.53125 C 45.144531 -15.53125 51.484375 -20.722656 51.484375 -31.109375 C 51.484375 -41.015625 44.921875 -45.96875 31.796875 -45.96875 C 29.421875 -45.96875 26.796875 -45.734375 23.921875 -45.265625 C 21.054688 -44.796875 18.726562 -44.289062 16.9375 -43.75 L 8.671875 -48.1875 L 12.359375 -98.25 L 65.65625 -98.25 L 65.65625 -80.65625 L 30.578125 -80.65625 L 28.765625 -61.359375 L 31.109375 -61.828125 C 33.847656 -62.453125 37.234375 -62.765625 41.265625 -62.765625 Z M 41.265625 -62.765625 "/></g></g></g><g fill="#000000" fill-opacity="1"><g transform="translate(215.027748, 243.646079)"><g/></g></g></svg>