<svg xmlns="http://www.w3.org/2000/svg" xmlns:xlink="http://www.w3.org/1999/xlink" width="377" zoomAndPan="magnify" viewBox="0 0 283.5 283.500005" height="377" preserveAspectRatio="xMidYMid meet" version="1.0"><defs><g/><clipPath id="732ec2d0a5"><path d="M 56.789062 28.296875 L 256.683594 28.296875 L 256.683594 268.621094 L 56.789062 268.621094 Z M 56.789062 28.296875 " clip-rule="nonzero"/></clipPath></defs><g clip-path="url(#732ec2d0a5)"><path fill="#00bf63" d="M 229.957031 108.519531 L 229.957031 68.558594 L 216.636719 68.558594 L 203.316406 55.238281 L 203.316406 41.914062 C 203.320312 34.535156 197.375 28.59375 189.992188 28.59375 L 70.105469 28.59375 C 62.730469 28.59375 56.789062 34.535156 56.789062 41.914062 L 56.789062 255.050781 C 56.789062 261.710938 63.449219 268.371094 70.105469 268.371094 L 189.992188 268.371094 C 196.65625 268.371094 203.320312 261.710938 203.320312 255.050781 L 203.320312 188.445312 L 209.976562 188.445312 C 216.636719 188.445312 216.636719 195.109375 216.636719 195.109375 L 216.636719 221.746094 C 216.636719 235.070312 223.296875 241.726562 236.617188 241.726562 C 249.9375 241.726562 256.601562 235.070312 256.601562 221.746094 C 256.601562 206.207031 256.601562 161.800781 256.601562 148.480469 C 256.601562 135.164062 229.957031 121.839844 229.957031 108.519531 Z M 176.675781 108.519531 L 83.429688 108.519531 L 83.429688 55.238281 L 176.675781 55.238281 Z M 243.285156 221.746094 C 243.285156 228.40625 236.621094 228.40625 236.621094 228.40625 C 236.621094 228.40625 229.960938 228.40625 229.960938 221.746094 C 229.960938 221.746094 229.960938 195.109375 229.960938 188.445312 C 229.960938 181.78125 223.304688 175.128906 216.640625 175.128906 C 212.199219 175.128906 203.320312 175.128906 203.320312 175.128906 L 203.320312 95.199219 L 216.640625 95.199219 C 216.640625 95.199219 216.640625 106.300781 216.640625 115.179688 C 216.640625 128.5 243.285156 141.820312 243.285156 155.144531 Z M 243.285156 221.746094 " fill-opacity="1" fill-rule="nonzero"/></g><g fill="#000000" fill-opacity="1"><g transform="translate(90.528028, 197.920515)"><g><path d="M 31.03125 -23.6875 C 31.03125 -15.539062 29.316406 -9.460938 25.890625 -5.453125 C 22.460938 -1.441406 17.269531 0.5625 10.3125 0.5625 C 7.863281 0.5625 6.007812 0.429688 4.75 0.171875 L 4.75 -6.84375 C 6.332031 -6.445312 7.988281 -6.25 9.71875 -6.25 C 12.644531 -6.25 15.050781 -6.675781 16.9375 -7.53125 C 18.820312 -8.382812 20.257812 -9.726562 21.25 -11.5625 C 22.25 -13.40625 22.828125 -15.941406 22.984375 -19.171875 L 22.640625 -19.171875 C 21.546875 -17.398438 20.28125 -16.15625 18.84375 -15.4375 C 17.414062 -14.71875 15.628906 -14.359375 13.484375 -14.359375 C 9.878906 -14.359375 7.039062 -15.507812 4.96875 -17.8125 C 2.894531 -20.125 1.859375 -23.335938 1.859375 -27.453125 C 1.859375 -31.878906 3.113281 -35.378906 5.625 -37.953125 C 8.144531 -40.523438 11.578125 -41.8125 15.921875 -41.8125 C 18.972656 -41.8125 21.640625 -41.09375 23.921875 -39.65625 C 26.210938 -38.226562 27.96875 -36.148438 29.1875 -33.421875 C 30.414062 -30.703125 31.03125 -27.457031 31.03125 -23.6875 Z M 16.078125 -34.796875 C 14.273438 -34.796875 12.863281 -34.171875 11.84375 -32.921875 C 10.820312 -31.679688 10.3125 -29.894531 10.3125 -27.5625 C 10.3125 -25.5625 10.773438 -23.976562 11.703125 -22.8125 C 12.628906 -21.644531 14.035156 -21.0625 15.921875 -21.0625 C 17.691406 -21.0625 19.207031 -21.640625 20.46875 -22.796875 C 21.726562 -23.953125 22.359375 -25.285156 22.359375 -26.796875 C 22.359375 -29.035156 21.769531 -30.925781 20.59375 -32.46875 C 19.414062 -34.019531 17.910156 -34.796875 16.078125 -34.796875 Z M 16.078125 -34.796875 "/></g></g><g transform="translate(123.568775, 197.920515)"><g><path d="M 17.359375 -26.40625 C 21.347656 -26.40625 24.523438 -25.28125 26.890625 -23.03125 C 29.253906 -20.789062 30.4375 -17.722656 30.4375 -13.828125 C 30.4375 -9.203125 29.015625 -5.644531 26.171875 -3.15625 C 23.328125 -0.675781 19.257812 0.5625 13.96875 0.5625 C 9.363281 0.5625 5.648438 -0.179688 2.828125 -1.671875 L 2.828125 -9.21875 C 4.316406 -8.425781 6.050781 -7.78125 8.03125 -7.28125 C 10.007812 -6.78125 11.882812 -6.53125 13.65625 -6.53125 C 18.988281 -6.53125 21.65625 -8.71875 21.65625 -13.09375 C 21.65625 -17.25 18.894531 -19.328125 13.375 -19.328125 C 12.375 -19.328125 11.269531 -19.226562 10.0625 -19.03125 C 8.851562 -18.832031 7.875 -18.625 7.125 -18.40625 L 3.640625 -20.265625 L 5.203125 -41.328125 L 27.609375 -41.328125 L 27.609375 -33.921875 L 12.859375 -33.921875 L 12.09375 -25.8125 L 13.09375 -26 C 14.238281 -26.269531 15.660156 -26.40625 17.359375 -26.40625 Z M 17.359375 -26.40625 "/></g></g></g><g fill="#000000" fill-opacity="1"><g transform="translate(156.620828, 197.920515)"><g/></g></g></svg>