<svg xmlns="http://www.w3.org/2000/svg" xmlns:xlink="http://www.w3.org/1999/xlink" width="377" zoomAndPan="magnify" viewBox="0 0 282.96 283.499996" height="377" preserveAspectRatio="xMidYMid meet" version="1.0"><defs><g/><clipPath id="d8a6d425db"><path d="M 57.015625 28.296875 L 256.914062 28.296875 L 256.914062 268.621094 L 57.015625 268.621094 Z M 57.015625 28.296875 " clip-rule="nonzero"/></clipPath><clipPath id="229223629a"><path d="M 4 0 L 255 0 L 255 283 L 4 283 Z M 4 0 " clip-rule="nonzero"/></clipPath></defs><g clip-path="url(#d8a6d425db)"><path fill="#737373" d="M 230.1875 108.519531 L 230.1875 68.558594 L 216.867188 68.558594 L 203.546875 55.238281 L 203.546875 41.914062 C 203.550781 34.535156 197.601562 28.59375 190.222656 28.59375 L 70.335938 28.59375 C 62.957031 28.59375 57.015625 34.535156 57.015625 41.914062 L 57.015625 255.050781 C 57.015625 261.710938 63.679688 268.371094 70.335938 268.371094 L 190.222656 268.371094 C 196.886719 268.371094 203.550781 261.710938 203.550781 255.050781 L 203.550781 188.445312 L 210.207031 188.445312 C 216.867188 188.445312 216.867188 195.109375 216.867188 195.109375 L 216.867188 221.746094 C 216.867188 235.070312 223.527344 241.726562 236.847656 241.726562 C 250.167969 241.726562 256.828125 235.070312 256.828125 221.746094 C 256.828125 206.207031 256.828125 161.800781 256.828125 148.480469 C 256.828125 135.164062 230.1875 121.839844 230.1875 108.519531 Z M 176.90625 108.519531 L 83.660156 108.519531 L 83.660156 55.238281 L 176.90625 55.238281 Z M 243.511719 221.746094 C 243.511719 228.40625 236.847656 228.40625 236.847656 228.40625 C 236.847656 228.40625 230.1875 228.40625 230.1875 221.746094 C 230.1875 221.746094 230.1875 195.109375 230.1875 188.445312 C 230.1875 181.78125 223.53125 175.128906 216.867188 175.128906 C 212.429688 175.128906 203.550781 175.128906 203.550781 175.128906 L 203.550781 95.199219 L 216.867188 95.199219 C 216.867188 95.199219 216.867188 106.300781 216.867188 115.179688 C 216.867188 128.5 243.511719 141.820312 243.511719 155.144531 Z M 243.511719 221.746094 " fill-opacity="1" fill-rule="nonzero"/></g><g fill="#000000" fill-opacity="1"><g transform="translate(55.671649, 237.074521)"><g><path d="M 74.328125 -56.734375 C 74.328125 -37.234375 70.21875 -22.675781 62 -13.0625 C 53.789062 -3.445312 41.359375 1.359375 24.703125 1.359375 C 18.835938 1.359375 14.394531 1.039062 11.375 0.40625 L 11.375 -16.375 C 15.164062 -15.425781 19.132812 -14.953125 23.28125 -14.953125 C 30.28125 -14.953125 36.035156 -15.976562 40.546875 -18.03125 C 45.054688 -20.09375 48.507812 -23.320312 50.90625 -27.71875 C 53.300781 -32.125 54.675781 -38.179688 55.03125 -45.890625 L 54.21875 -45.890625 C 51.601562 -41.648438 48.582031 -38.671875 45.15625 -36.953125 C 41.726562 -35.242188 37.441406 -34.390625 32.296875 -34.390625 C 23.671875 -34.390625 16.875 -37.148438 11.90625 -42.671875 C 6.945312 -48.203125 4.46875 -55.890625 4.46875 -65.734375 C 4.46875 -76.335938 7.476562 -84.71875 13.5 -90.875 C 19.53125 -97.039062 27.734375 -100.125 38.109375 -100.125 C 45.421875 -100.125 51.816406 -98.40625 57.296875 -94.96875 C 62.785156 -91.539062 66.992188 -86.566406 69.921875 -80.046875 C 72.859375 -73.523438 74.328125 -65.753906 74.328125 -56.734375 Z M 38.515625 -83.328125 C 34.179688 -83.328125 30.796875 -81.835938 28.359375 -78.859375 C 25.921875 -75.878906 24.703125 -71.59375 24.703125 -66 C 24.703125 -61.21875 25.804688 -57.425781 28.015625 -54.625 C 30.234375 -51.832031 33.597656 -50.4375 38.109375 -50.4375 C 42.347656 -50.4375 45.976562 -51.820312 49 -54.59375 C 52.03125 -57.375 53.546875 -60.566406 53.546875 -64.171875 C 53.546875 -69.546875 52.132812 -74.082031 49.3125 -77.78125 C 46.488281 -81.476562 42.890625 -83.328125 38.515625 -83.328125 Z M 38.515625 -83.328125 "/></g></g></g><g fill="#000000" fill-opacity="1"><g transform="translate(134.797592, 237.074521)"><g><path d="M 41.5625 -63.234375 C 51.132812 -63.234375 58.75 -60.546875 64.40625 -55.171875 C 70.070312 -49.796875 72.90625 -42.441406 72.90625 -33.109375 C 72.90625 -22.046875 69.5 -13.535156 62.6875 -7.578125 C 55.875 -1.617188 46.125 1.359375 33.4375 1.359375 C 22.425781 1.359375 13.535156 -0.425781 6.765625 -4 L 6.765625 -22.0625 C 10.335938 -20.164062 14.488281 -18.617188 19.21875 -17.421875 C 23.957031 -16.234375 28.453125 -15.640625 32.703125 -15.640625 C 45.472656 -15.640625 51.859375 -20.875 51.859375 -31.34375 C 51.859375 -41.3125 45.242188 -46.296875 32.015625 -46.296875 C 29.628906 -46.296875 26.988281 -46.054688 24.09375 -45.578125 C 21.207031 -45.109375 18.863281 -44.601562 17.0625 -44.0625 L 8.734375 -48.53125 L 12.453125 -98.96875 L 66.140625 -98.96875 L 66.140625 -81.234375 L 30.796875 -81.234375 L 28.96875 -61.8125 L 31.34375 -62.28125 C 34.09375 -62.914062 37.5 -63.234375 41.5625 -63.234375 Z M 41.5625 -63.234375 "/></g></g></g><g fill="#000000" fill-opacity="1"><g transform="translate(213.923786, 237.074521)"><g/></g></g><g clip-path="url(#229223629a)"><path stroke-linecap="butt" transform="matrix(0.392322, 0.637656, -0.637656, 0.392322, 59.60623, 25.946601)" fill="none" stroke-linejoin="miter" d="M 0.000951175 5.99909 L 376.980962 5.997615 " stroke="#ff3131" stroke-width="12" stroke-opacity="1" stroke-miterlimit="4"/></g></svg>