<svg xmlns="http://www.w3.org/2000/svg" xmlns:xlink="http://www.w3.org/1999/xlink" width="377" zoomAndPan="magnify" viewBox="0 0 283.5 283.500005" height="377" preserveAspectRatio="xMidYMid meet" version="1.0"><defs><g/><clipPath id="cdc54364c2"><path d="M 56.789062 28.296875 L 256.683594 28.296875 L 256.683594 268.621094 L 56.789062 268.621094 Z M 56.789062 28.296875 " clip-rule="nonzero"/></clipPath><clipPath id="ed57733196"><path d="M 28.296875 58.035156 L 244.664062 58.035156 L 244.664062 274.40625 L 28.296875 274.40625 Z M 28.296875 58.035156 " clip-rule="nonzero"/></clipPath></defs><g clip-path="url(#cdc54364c2)"><path fill="#545454" d="M 229.957031 108.519531 L 229.957031 68.558594 L 216.636719 68.558594 L 203.316406 55.238281 L 203.316406 41.914062 C 203.320312 34.535156 197.375 28.59375 189.992188 28.59375 L 70.105469 28.59375 C 62.730469 28.59375 56.789062 34.535156 56.789062 41.914062 L 56.789062 255.050781 C 56.789062 261.710938 63.449219 268.371094 70.105469 268.371094 L 189.992188 268.371094 C 196.65625 268.371094 203.320312 261.710938 203.320312 255.050781 L 203.320312 188.445312 L 209.976562 188.445312 C 216.636719 188.445312 216.636719 195.109375 216.636719 195.109375 L 216.636719 221.746094 C 216.636719 235.070312 223.296875 241.726562 236.617188 241.726562 C 249.9375 241.726562 256.601562 235.070312 256.601562 221.746094 C 256.601562 206.207031 256.601562 161.800781 256.601562 148.480469 C 256.601562 135.164062 229.957031 121.839844 229.957031 108.519531 Z M 176.675781 108.519531 L 83.429688 108.519531 L 83.429688 55.238281 L 176.675781 55.238281 Z M 243.285156 221.746094 C 243.285156 228.40625 236.621094 228.40625 236.621094 228.40625 C 236.621094 228.40625 229.960938 228.40625 229.960938 221.746094 C 229.960938 221.746094 229.960938 195.109375 229.960938 188.445312 C 229.960938 181.78125 223.304688 175.128906 216.640625 175.128906 C 212.199219 175.128906 203.320312 175.128906 203.320312 175.128906 L 203.320312 95.199219 L 216.640625 95.199219 C 216.640625 95.199219 216.640625 106.300781 216.640625 115.179688 C 216.640625 128.5 243.285156 141.820312 243.285156 155.144531 Z M 243.285156 221.746094 " fill-opacity="1" fill-rule="nonzero"/></g><g fill="#000000" fill-opacity="1"><g transform="translate(56.787825, 236.955215)"><g><path d="M 75.59375 -57.6875 C 75.59375 -37.863281 71.414062 -23.0625 63.0625 -13.28125 C 54.707031 -3.507812 42.0625 1.375 25.125 1.375 C 19.15625 1.375 14.632812 1.050781 11.5625 0.40625 L 11.5625 -16.65625 C 15.414062 -15.695312 19.457031 -15.21875 23.6875 -15.21875 C 30.800781 -15.21875 36.648438 -16.257812 41.234375 -18.34375 C 45.828125 -20.4375 49.335938 -23.71875 51.765625 -28.1875 C 54.203125 -32.664062 55.601562 -38.828125 55.96875 -46.671875 L 55.140625 -46.671875 C 52.484375 -42.359375 49.410156 -39.328125 45.921875 -37.578125 C 42.429688 -35.835938 38.070312 -34.96875 32.84375 -34.96875 C 24.070312 -34.96875 17.160156 -37.78125 12.109375 -43.40625 C 7.066406 -49.03125 4.546875 -56.84375 4.546875 -66.84375 C 4.546875 -77.632812 7.609375 -86.160156 13.734375 -92.421875 C 19.859375 -98.691406 28.203125 -101.828125 38.765625 -101.828125 C 46.203125 -101.828125 52.707031 -100.082031 58.28125 -96.59375 C 63.851562 -93.101562 68.128906 -88.039062 71.109375 -81.40625 C 74.097656 -74.78125 75.59375 -66.875 75.59375 -57.6875 Z M 39.171875 -84.75 C 34.765625 -84.75 31.320312 -83.234375 28.84375 -80.203125 C 26.363281 -77.171875 25.125 -72.8125 25.125 -67.125 C 25.125 -62.257812 26.25 -58.40625 28.5 -55.5625 C 30.75 -52.71875 34.171875 -51.296875 38.765625 -51.296875 C 43.078125 -51.296875 46.769531 -52.707031 49.84375 -55.53125 C 52.914062 -58.351562 54.453125 -61.597656 54.453125 -65.265625 C 54.453125 -70.722656 53.019531 -75.332031 50.15625 -79.09375 C 47.289062 -82.863281 43.628906 -84.75 39.171875 -84.75 Z M 39.171875 -84.75 "/></g></g><g transform="translate(137.27202, 236.955215)"><g><path d="M 42.265625 -64.296875 C 52.003906 -64.296875 59.753906 -61.566406 65.515625 -56.109375 C 71.273438 -50.648438 74.15625 -43.171875 74.15625 -33.671875 C 74.15625 -22.421875 70.6875 -13.765625 63.75 -7.703125 C 56.820312 -1.648438 46.910156 1.375 34.015625 1.375 C 22.816406 1.375 13.773438 -0.4375 6.890625 -4.0625 L 6.890625 -22.4375 C 10.515625 -20.507812 14.734375 -18.9375 19.546875 -17.71875 C 24.367188 -16.507812 28.9375 -15.90625 33.25 -15.90625 C 46.238281 -15.90625 52.734375 -21.226562 52.734375 -31.875 C 52.734375 -42.019531 46.007812 -47.09375 32.5625 -47.09375 C 30.132812 -47.09375 27.453125 -46.847656 24.515625 -46.359375 C 21.578125 -45.878906 19.1875 -45.363281 17.34375 -44.8125 L 8.875 -49.359375 L 12.671875 -100.65625 L 67.265625 -100.65625 L 67.265625 -82.625 L 31.328125 -82.625 L 29.46875 -62.859375 L 31.875 -63.34375 C 34.675781 -63.976562 38.140625 -64.296875 42.265625 -64.296875 Z M 42.265625 -64.296875 "/></g></g></g><g fill="#000000" fill-opacity="1"><g transform="translate(217.783754, 236.955215)"><g/></g></g><g clip-path="url(#ed57733196)"><path fill="#ff3131" d="M 136.617188 70.171875 C 83.582031 70.171875 40.433594 113.320312 40.433594 166.355469 C 40.433594 219.390625 83.582031 262.539062 136.617188 262.539062 C 189.65625 262.539062 232.800781 219.390625 232.800781 166.355469 C 232.800781 113.320312 189.65625 70.171875 136.617188 70.171875 Z M 136.617188 274.675781 C 121.996094 274.675781 107.8125 271.8125 94.453125 266.164062 C 81.554688 260.707031 69.96875 252.898438 60.023438 242.949219 C 50.078125 233.003906 42.265625 221.421875 36.8125 208.519531 C 31.160156 195.164062 28.296875 180.976562 28.296875 166.355469 C 28.296875 151.734375 31.160156 137.550781 36.8125 124.191406 C 42.265625 111.289062 50.078125 99.707031 60.023438 89.761719 C 69.96875 79.816406 81.554688 72.003906 94.453125 66.550781 C 107.8125 60.898438 121.996094 58.035156 136.617188 58.035156 C 151.238281 58.035156 165.425781 60.898438 178.785156 66.550781 C 191.683594 72.003906 203.265625 79.816406 213.210938 89.761719 C 223.160156 99.707031 230.96875 111.289062 236.425781 124.191406 C 242.074219 137.550781 244.941406 151.734375 244.941406 166.355469 C 244.941406 180.976562 242.074219 195.164062 236.425781 208.519531 C 230.96875 221.421875 223.160156 233.003906 213.210938 242.949219 C 203.265625 252.898438 191.683594 260.707031 178.785156 266.164062 C 165.425781 271.8125 151.238281 274.675781 136.617188 274.675781 " fill-opacity="1" fill-rule="nonzero"/></g><path fill="#ff3131" d="M 189.660156 254.273438 L 72.472656 86.535156 L 82.425781 79.582031 L 199.613281 247.324219 L 189.660156 254.273438 " fill-opacity="1" fill-rule="nonzero"/></svg>