<svg xmlns="http://www.w3.org/2000/svg" xmlns:xlink="http://www.w3.org/1999/xlink" width="377" zoomAndPan="magnify" viewBox="0 0 283.5 283.500005" height="377" preserveAspectRatio="xMidYMid meet" version="1.0"><defs><g/><clipPath id="7ae35efbca"><path d="M 56.789062 28.296875 L 256.683594 28.296875 L 256.683594 268.621094 L 56.789062 268.621094 Z M 56.789062 28.296875 " clip-rule="nonzero"/></clipPath></defs><g clip-path="url(#7ae35efbca)"><path fill="#545454" d="M 229.957031 108.519531 L 229.957031 68.558594 L 216.636719 68.558594 L 203.316406 55.238281 L 203.316406 41.914062 C 203.320312 34.535156 197.375 28.59375 189.992188 28.59375 L 70.105469 28.59375 C 62.730469 28.59375 56.789062 34.535156 56.789062 41.914062 L 56.789062 255.050781 C 56.789062 261.710938 63.449219 268.371094 70.105469 268.371094 L 189.992188 268.371094 C 196.65625 268.371094 203.320312 261.710938 203.320312 255.050781 L 203.320312 188.445312 L 209.976562 188.445312 C 216.636719 188.445312 216.636719 195.109375 216.636719 195.109375 L 216.636719 221.746094 C 216.636719 235.070312 223.296875 241.726562 236.617188 241.726562 C 249.9375 241.726562 256.601562 235.070312 256.601562 221.746094 C 256.601562 206.207031 256.601562 161.800781 256.601562 148.480469 C 256.601562 135.164062 229.957031 121.839844 229.957031 108.519531 Z M 176.675781 108.519531 L 83.429688 108.519531 L 83.429688 55.238281 L 176.675781 55.238281 Z M 243.285156 221.746094 C 243.285156 228.40625 236.621094 228.40625 236.621094 228.40625 C 236.621094 228.40625 229.960938 228.40625 229.960938 221.746094 C 229.960938 221.746094 229.960938 195.109375 229.960938 188.445312 C 229.960938 181.78125 223.304688 175.128906 216.640625 175.128906 C 212.199219 175.128906 203.320312 175.128906 203.320312 175.128906 L 203.320312 95.199219 L 216.640625 95.199219 C 216.640625 95.199219 216.640625 106.300781 216.640625 115.179688 C 216.640625 128.5 243.285156 141.820312 243.285156 155.144531 Z M 243.285156 221.746094 " fill-opacity="1" fill-rule="nonzero"/></g><g fill="#000000" fill-opacity="1"><g transform="translate(63.7898, 183.511593)"><g><path d="M 24.5 -13.0625 C 24.5 -8.84375 23.296875 -5.609375 20.890625 -3.359375 C 18.492188 -1.117188 15.023438 0 10.484375 0 L 3.234375 0 L 3.234375 -25.640625 L 11.28125 -25.640625 C 15.46875 -25.640625 18.71875 -24.535156 21.03125 -22.328125 C 23.34375 -20.117188 24.5 -17.03125 24.5 -13.0625 Z M 18.859375 -12.921875 C 18.859375 -18.429688 16.425781 -21.1875 11.5625 -21.1875 L 8.671875 -21.1875 L 8.671875 -4.484375 L 11 -4.484375 C 16.238281 -4.484375 18.859375 -7.296875 18.859375 -12.921875 Z M 18.859375 -12.921875 "/></g></g><g transform="translate(90.379743, 183.511593)"><g><path d="M 2.578125 -24.671875 C 2.578125 -26.421875 3.546875 -27.296875 5.484375 -27.296875 C 7.429688 -27.296875 8.40625 -26.421875 8.40625 -24.671875 C 8.40625 -23.847656 8.160156 -23.203125 7.671875 -22.734375 C 7.191406 -22.273438 6.460938 -22.046875 5.484375 -22.046875 C 3.546875 -22.046875 2.578125 -22.921875 2.578125 -24.671875 Z M 8.15625 0 L 2.8125 0 L 2.8125 -19.609375 L 8.15625 -19.609375 Z M 8.15625 0 "/></g></g><g transform="translate(101.341956, 183.511593)"><g><path d="M 10.921875 -16.171875 C 9.785156 -16.171875 8.894531 -15.8125 8.25 -15.09375 C 7.613281 -14.375 7.25 -13.351562 7.15625 -12.03125 L 14.65625 -12.03125 C 14.632812 -13.351562 14.289062 -14.375 13.625 -15.09375 C 12.957031 -15.8125 12.054688 -16.171875 10.921875 -16.171875 Z M 11.6875 0.34375 C 8.53125 0.34375 6.0625 -0.523438 4.28125 -2.265625 C 2.5 -4.003906 1.609375 -6.472656 1.609375 -9.671875 C 1.609375 -12.953125 2.429688 -15.488281 4.078125 -17.28125 C 5.722656 -19.082031 7.992188 -19.984375 10.890625 -19.984375 C 13.660156 -19.984375 15.816406 -19.191406 17.359375 -17.609375 C 18.910156 -16.035156 19.6875 -13.851562 19.6875 -11.0625 L 19.6875 -8.46875 L 7.03125 -8.46875 C 7.09375 -6.945312 7.539062 -5.757812 8.375 -4.90625 C 9.21875 -4.050781 10.398438 -3.625 11.921875 -3.625 C 13.109375 -3.625 14.226562 -3.75 15.28125 -4 C 16.332031 -4.25 17.429688 -4.640625 18.578125 -5.171875 L 18.578125 -1.03125 C 17.640625 -0.5625 16.640625 -0.21875 15.578125 0 C 14.515625 0.226562 13.21875 0.34375 11.6875 0.34375 Z M 11.6875 0.34375 "/></g></g><g transform="translate(122.564799, 183.511593)"><g><path d="M 16.484375 -5.828125 C 16.484375 -3.816406 15.785156 -2.285156 14.390625 -1.234375 C 12.992188 -0.179688 10.90625 0.34375 8.125 0.34375 C 6.695312 0.34375 5.476562 0.242188 4.46875 0.046875 C 3.46875 -0.140625 2.53125 -0.421875 1.65625 -0.796875 L 1.65625 -5.203125 C 2.644531 -4.734375 3.757812 -4.34375 5 -4.03125 C 6.25 -3.71875 7.347656 -3.5625 8.296875 -3.5625 C 10.234375 -3.5625 11.203125 -4.125 11.203125 -5.25 C 11.203125 -5.664062 11.070312 -6.003906 10.8125 -6.265625 C 10.5625 -6.535156 10.117188 -6.835938 9.484375 -7.171875 C 8.859375 -7.503906 8.019531 -7.890625 6.96875 -8.328125 C 5.457031 -8.960938 4.347656 -9.546875 3.640625 -10.078125 C 2.929688 -10.617188 2.414062 -11.238281 2.09375 -11.9375 C 1.769531 -12.632812 1.609375 -13.488281 1.609375 -14.5 C 1.609375 -16.25 2.285156 -17.597656 3.640625 -18.546875 C 4.992188 -19.503906 6.910156 -19.984375 9.390625 -19.984375 C 11.742188 -19.984375 14.039062 -19.46875 16.28125 -18.4375 L 14.65625 -14.578125 C 13.675781 -14.992188 12.757812 -15.335938 11.90625 -15.609375 C 11.050781 -15.878906 10.179688 -16.015625 9.296875 -16.015625 C 7.710938 -16.015625 6.921875 -15.585938 6.921875 -14.734375 C 6.921875 -14.253906 7.175781 -13.835938 7.6875 -13.484375 C 8.195312 -13.140625 9.3125 -12.617188 11.03125 -11.921875 C 12.5625 -11.304688 13.679688 -10.726562 14.390625 -10.1875 C 15.109375 -9.65625 15.632812 -9.035156 15.96875 -8.328125 C 16.3125 -7.628906 16.484375 -6.796875 16.484375 -5.828125 Z M 16.484375 -5.828125 "/></g></g><g transform="translate(140.420051, 183.511593)"><g><path d="M 10.921875 -16.171875 C 9.785156 -16.171875 8.894531 -15.8125 8.25 -15.09375 C 7.613281 -14.375 7.25 -13.351562 7.15625 -12.03125 L 14.65625 -12.03125 C 14.632812 -13.351562 14.289062 -14.375 13.625 -15.09375 C 12.957031 -15.8125 12.054688 -16.171875 10.921875 -16.171875 Z M 11.6875 0.34375 C 8.53125 0.34375 6.0625 -0.523438 4.28125 -2.265625 C 2.5 -4.003906 1.609375 -6.472656 1.609375 -9.671875 C 1.609375 -12.953125 2.429688 -15.488281 4.078125 -17.28125 C 5.722656 -19.082031 7.992188 -19.984375 10.890625 -19.984375 C 13.660156 -19.984375 15.816406 -19.191406 17.359375 -17.609375 C 18.910156 -16.035156 19.6875 -13.851562 19.6875 -11.0625 L 19.6875 -8.46875 L 7.03125 -8.46875 C 7.09375 -6.945312 7.539062 -5.757812 8.375 -4.90625 C 9.21875 -4.050781 10.398438 -3.625 11.921875 -3.625 C 13.109375 -3.625 14.226562 -3.75 15.28125 -4 C 16.332031 -4.25 17.429688 -4.640625 18.578125 -5.171875 L 18.578125 -1.03125 C 17.640625 -0.5625 16.640625 -0.21875 15.578125 0 C 14.515625 0.226562 13.21875 0.34375 11.6875 0.34375 Z M 11.6875 0.34375 "/></g></g><g transform="translate(161.642895, 183.511593)"><g><path d="M 8.15625 0 L 2.8125 0 L 2.8125 -27.296875 L 8.15625 -27.296875 Z M 8.15625 0 "/></g></g><g transform="translate(172.605108, 183.511593)"><g><path d="M 16.484375 -5.828125 C 16.484375 -3.816406 15.785156 -2.285156 14.390625 -1.234375 C 12.992188 -0.179688 10.90625 0.34375 8.125 0.34375 C 6.695312 0.34375 5.476562 0.242188 4.46875 0.046875 C 3.46875 -0.140625 2.53125 -0.421875 1.65625 -0.796875 L 1.65625 -5.203125 C 2.644531 -4.734375 3.757812 -4.34375 5 -4.03125 C 6.25 -3.71875 7.347656 -3.5625 8.296875 -3.5625 C 10.234375 -3.5625 11.203125 -4.125 11.203125 -5.25 C 11.203125 -5.664062 11.070312 -6.003906 10.8125 -6.265625 C 10.5625 -6.535156 10.117188 -6.835938 9.484375 -7.171875 C 8.859375 -7.503906 8.019531 -7.890625 6.96875 -8.328125 C 5.457031 -8.960938 4.347656 -9.546875 3.640625 -10.078125 C 2.929688 -10.617188 2.414062 -11.238281 2.09375 -11.9375 C 1.769531 -12.632812 1.609375 -13.488281 1.609375 -14.5 C 1.609375 -16.25 2.285156 -17.597656 3.640625 -18.546875 C 4.992188 -19.503906 6.910156 -19.984375 9.390625 -19.984375 C 11.742188 -19.984375 14.039062 -19.46875 16.28125 -18.4375 L 14.65625 -14.578125 C 13.675781 -14.992188 12.757812 -15.335938 11.90625 -15.609375 C 11.050781 -15.878906 10.179688 -16.015625 9.296875 -16.015625 C 7.710938 -16.015625 6.921875 -15.585938 6.921875 -14.734375 C 6.921875 -14.253906 7.175781 -13.835938 7.6875 -13.484375 C 8.195312 -13.140625 9.3125 -12.617188 11.03125 -11.921875 C 12.5625 -11.304688 13.679688 -10.726562 14.390625 -10.1875 C 15.109375 -9.65625 15.632812 -9.035156 15.96875 -8.328125 C 16.3125 -7.628906 16.484375 -6.796875 16.484375 -5.828125 Z M 16.484375 -5.828125 "/></g></g></g><g fill="#000000" fill-opacity="1"><g transform="translate(190.467376, 183.511593)"><g/></g></g></svg>