<svg xmlns="http://www.w3.org/2000/svg" xmlns:xlink="http://www.w3.org/1999/xlink" width="377" zoomAndPan="magnify" viewBox="0 0 283.5 283.500005" height="377" preserveAspectRatio="xMidYMid meet" version="1.0"><defs><g/><clipPath id="f16cd623f7"><path d="M 56.886719 28.347656 L 257.136719 28.347656 L 257.136719 269 L 56.886719 269 Z M 56.886719 28.347656 " clip-rule="nonzero"/></clipPath></defs><g clip-path="url(#f16cd623f7)"><path fill="#a6a6a6" d="M 230.503906 108.695312 L 230.503906 68.671875 L 217.152344 68.671875 L 203.796875 55.332031 L 203.796875 41.984375 C 203.800781 34.597656 197.835938 28.644531 190.4375 28.644531 L 70.242188 28.644531 C 62.84375 28.644531 56.886719 34.597656 56.886719 41.984375 L 56.886719 255.457031 C 56.886719 262.125 63.566406 268.796875 70.242188 268.796875 L 190.4375 268.796875 C 197.117188 268.796875 203.800781 262.125 203.800781 255.457031 L 203.800781 188.746094 L 210.472656 188.746094 C 217.152344 188.746094 217.152344 195.417969 217.152344 195.417969 L 217.152344 222.097656 C 217.152344 235.445312 223.828125 242.109375 237.183594 242.109375 C 250.535156 242.109375 257.21875 235.445312 257.21875 222.097656 C 257.21875 206.535156 257.21875 162.058594 257.21875 148.71875 C 257.21875 135.382812 230.503906 122.039062 230.503906 108.695312 Z M 177.085938 108.695312 L 83.597656 108.695312 L 83.597656 55.328125 L 177.085938 55.328125 Z M 243.867188 222.101562 C 243.867188 228.769531 237.183594 228.769531 237.183594 228.769531 C 237.183594 228.769531 230.507812 228.769531 230.507812 222.101562 C 230.507812 222.101562 230.507812 195.421875 230.507812 188.746094 C 230.507812 182.074219 223.832031 175.40625 217.152344 175.40625 C 212.699219 175.40625 203.800781 175.40625 203.800781 175.40625 L 203.800781 95.355469 L 217.152344 95.355469 C 217.152344 95.355469 217.152344 106.472656 217.152344 115.367188 C 217.152344 128.707031 243.867188 142.050781 243.867188 155.394531 Z M 243.867188 222.101562 " fill-opacity="1" fill-rule="nonzero"/></g><g fill="#000000" fill-opacity="1"><g transform="translate(63.9023, 183.835241)"><g><path d="M 24.546875 -13.09375 C 24.546875 -8.863281 23.34375 -5.625 20.9375 -3.375 C 18.53125 -1.125 15.050781 0 10.5 0 L 3.234375 0 L 3.234375 -25.6875 L 11.296875 -25.6875 C 15.492188 -25.6875 18.75 -24.578125 21.0625 -22.359375 C 23.382812 -20.148438 24.546875 -17.0625 24.546875 -13.09375 Z M 18.890625 -12.953125 C 18.890625 -18.460938 16.453125 -21.21875 11.578125 -21.21875 L 8.6875 -21.21875 L 8.6875 -4.5 L 11.015625 -4.5 C 16.265625 -4.5 18.890625 -7.316406 18.890625 -12.953125 Z M 18.890625 -12.953125 "/></g></g><g transform="translate(90.539138, 183.835241)"><g><path d="M 2.578125 -24.71875 C 2.578125 -26.46875 3.550781 -27.34375 5.5 -27.34375 C 7.445312 -27.34375 8.421875 -26.46875 8.421875 -24.71875 C 8.421875 -23.882812 8.175781 -23.238281 7.6875 -22.78125 C 7.195312 -22.320312 6.46875 -22.09375 5.5 -22.09375 C 3.550781 -22.09375 2.578125 -22.96875 2.578125 -24.71875 Z M 8.171875 0 L 2.8125 0 L 2.8125 -19.640625 L 8.171875 -19.640625 Z M 8.171875 0 "/></g></g><g transform="translate(101.520684, 183.835241)"><g><path d="M 10.953125 -16.203125 C 9.804688 -16.203125 8.910156 -15.835938 8.265625 -15.109375 C 7.628906 -14.390625 7.265625 -13.367188 7.171875 -12.046875 L 14.6875 -12.046875 C 14.664062 -13.367188 14.320312 -14.390625 13.65625 -15.109375 C 12.988281 -15.835938 12.085938 -16.203125 10.953125 -16.203125 Z M 11.703125 0.34375 C 8.535156 0.34375 6.0625 -0.523438 4.28125 -2.265625 C 2.5 -4.015625 1.609375 -6.488281 1.609375 -9.6875 C 1.609375 -12.976562 2.429688 -15.519531 4.078125 -17.3125 C 5.722656 -19.113281 8 -20.015625 10.90625 -20.015625 C 13.6875 -20.015625 15.847656 -19.222656 17.390625 -17.640625 C 18.941406 -16.054688 19.71875 -13.875 19.71875 -11.09375 L 19.71875 -8.484375 L 7.046875 -8.484375 C 7.109375 -6.960938 7.554688 -5.773438 8.390625 -4.921875 C 9.234375 -4.066406 10.421875 -3.640625 11.953125 -3.640625 C 13.128906 -3.640625 14.242188 -3.757812 15.296875 -4 C 16.359375 -4.25 17.460938 -4.644531 18.609375 -5.1875 L 18.609375 -1.03125 C 17.671875 -0.5625 16.664062 -0.21875 15.59375 0 C 14.53125 0.226562 13.234375 0.34375 11.703125 0.34375 Z M 11.703125 0.34375 "/></g></g><g transform="translate(122.780957, 183.835241)"><g><path d="M 16.515625 -5.828125 C 16.515625 -3.816406 15.8125 -2.285156 14.40625 -1.234375 C 13.007812 -0.179688 10.921875 0.34375 8.140625 0.34375 C 6.703125 0.34375 5.476562 0.242188 4.46875 0.046875 C 3.46875 -0.140625 2.53125 -0.421875 1.65625 -0.796875 L 1.65625 -5.21875 C 2.644531 -4.75 3.765625 -4.351562 5.015625 -4.03125 C 6.265625 -3.71875 7.363281 -3.5625 8.3125 -3.5625 C 10.257812 -3.5625 11.234375 -4.125 11.234375 -5.25 C 11.234375 -5.675781 11.101562 -6.019531 10.84375 -6.28125 C 10.582031 -6.539062 10.132812 -6.835938 9.5 -7.171875 C 8.875 -7.503906 8.03125 -7.894531 6.96875 -8.34375 C 5.457031 -8.976562 4.347656 -9.5625 3.640625 -10.09375 C 2.929688 -10.632812 2.414062 -11.253906 2.09375 -11.953125 C 1.769531 -12.648438 1.609375 -13.507812 1.609375 -14.53125 C 1.609375 -16.28125 2.285156 -17.628906 3.640625 -18.578125 C 4.992188 -19.535156 6.914062 -20.015625 9.40625 -20.015625 C 11.769531 -20.015625 14.070312 -19.5 16.3125 -18.46875 L 14.6875 -14.59375 C 13.707031 -15.019531 12.785156 -15.367188 11.921875 -15.640625 C 11.066406 -15.910156 10.195312 -16.046875 9.3125 -16.046875 C 7.726562 -16.046875 6.9375 -15.617188 6.9375 -14.765625 C 6.9375 -14.273438 7.191406 -13.851562 7.703125 -13.5 C 8.210938 -13.15625 9.328125 -12.640625 11.046875 -11.953125 C 12.585938 -11.328125 13.710938 -10.742188 14.421875 -10.203125 C 15.140625 -9.671875 15.664062 -9.050781 16 -8.34375 C 16.34375 -7.644531 16.515625 -6.804688 16.515625 -5.828125 Z M 16.515625 -5.828125 "/></g></g><g transform="translate(140.667699, 183.835241)"><g><path d="M 10.953125 -16.203125 C 9.804688 -16.203125 8.910156 -15.835938 8.265625 -15.109375 C 7.628906 -14.390625 7.265625 -13.367188 7.171875 -12.046875 L 14.6875 -12.046875 C 14.664062 -13.367188 14.320312 -14.390625 13.65625 -15.109375 C 12.988281 -15.835938 12.085938 -16.203125 10.953125 -16.203125 Z M 11.703125 0.34375 C 8.535156 0.34375 6.0625 -0.523438 4.28125 -2.265625 C 2.5 -4.015625 1.609375 -6.488281 1.609375 -9.6875 C 1.609375 -12.976562 2.429688 -15.519531 4.078125 -17.3125 C 5.722656 -19.113281 8 -20.015625 10.90625 -20.015625 C 13.6875 -20.015625 15.847656 -19.222656 17.390625 -17.640625 C 18.941406 -16.054688 19.71875 -13.875 19.71875 -11.09375 L 19.71875 -8.484375 L 7.046875 -8.484375 C 7.109375 -6.960938 7.554688 -5.773438 8.390625 -4.921875 C 9.234375 -4.066406 10.421875 -3.640625 11.953125 -3.640625 C 13.128906 -3.640625 14.242188 -3.757812 15.296875 -4 C 16.359375 -4.25 17.460938 -4.644531 18.609375 -5.1875 L 18.609375 -1.03125 C 17.671875 -0.5625 16.664062 -0.21875 15.59375 0 C 14.53125 0.226562 13.234375 0.34375 11.703125 0.34375 Z M 11.703125 0.34375 "/></g></g><g transform="translate(161.927972, 183.835241)"><g><path d="M 8.171875 0 L 2.8125 0 L 2.8125 -27.34375 L 8.171875 -27.34375 Z M 8.171875 0 "/></g></g><g transform="translate(172.909517, 183.835241)"><g><path d="M 16.515625 -5.828125 C 16.515625 -3.816406 15.8125 -2.285156 14.40625 -1.234375 C 13.007812 -0.179688 10.921875 0.34375 8.140625 0.34375 C 6.703125 0.34375 5.476562 0.242188 4.46875 0.046875 C 3.46875 -0.140625 2.53125 -0.421875 1.65625 -0.796875 L 1.65625 -5.21875 C 2.644531 -4.75 3.765625 -4.351562 5.015625 -4.03125 C 6.265625 -3.71875 7.363281 -3.5625 8.3125 -3.5625 C 10.257812 -3.5625 11.234375 -4.125 11.234375 -5.25 C 11.234375 -5.675781 11.101562 -6.019531 10.84375 -6.28125 C 10.582031 -6.539062 10.132812 -6.835938 9.5 -7.171875 C 8.875 -7.503906 8.03125 -7.894531 6.96875 -8.34375 C 5.457031 -8.976562 4.347656 -9.5625 3.640625 -10.09375 C 2.929688 -10.632812 2.414062 -11.253906 2.09375 -11.953125 C 1.769531 -12.648438 1.609375 -13.507812 1.609375 -14.53125 C 1.609375 -16.28125 2.285156 -17.628906 3.640625 -18.578125 C 4.992188 -19.535156 6.914062 -20.015625 9.40625 -20.015625 C 11.769531 -20.015625 14.070312 -19.5 16.3125 -18.46875 L 14.6875 -14.59375 C 13.707031 -15.019531 12.785156 -15.367188 11.921875 -15.640625 C 11.066406 -15.910156 10.195312 -16.046875 9.3125 -16.046875 C 7.726562 -16.046875 6.9375 -15.617188 6.9375 -14.765625 C 6.9375 -14.273438 7.191406 -13.851562 7.703125 -13.5 C 8.210938 -13.15625 9.328125 -12.640625 11.046875 -11.953125 C 12.585938 -11.328125 13.710938 -10.742188 14.421875 -10.203125 C 15.140625 -9.671875 15.664062 -9.050781 16 -8.34375 C 16.34375 -7.644531 16.515625 -6.804688 16.515625 -5.828125 Z M 16.515625 -5.828125 "/></g></g></g><g fill="#000000" fill-opacity="1"><g transform="translate(190.803288, 183.835241)"><g/></g></g></svg>