<svg xmlns="http://www.w3.org/2000/svg" xmlns:xlink="http://www.w3.org/1999/xlink" width="377" zoomAndPan="magnify" viewBox="0 0 283.5 283.500005" height="377" preserveAspectRatio="xMidYMid meet" version="1.0"><defs><g/><clipPath id="6dc4061748"><path d="M 56.789062 28.296875 L 256.683594 28.296875 L 256.683594 268.621094 L 56.789062 268.621094 Z M 56.789062 28.296875 " clip-rule="nonzero"/></clipPath><clipPath id="80d50f02e9"><path d="M 28.296875 58.035156 L 244.664062 58.035156 L 244.664062 274.40625 L 28.296875 274.40625 Z M 28.296875 58.035156 " clip-rule="nonzero"/></clipPath></defs><g clip-path="url(#6dc4061748)"><path fill="#545454" d="M 229.957031 108.519531 L 229.957031 68.558594 L 216.636719 68.558594 L 203.316406 55.238281 L 203.316406 41.914062 C 203.320312 34.535156 197.375 28.59375 189.992188 28.59375 L 70.105469 28.59375 C 62.730469 28.59375 56.789062 34.535156 56.789062 41.914062 L 56.789062 255.050781 C 56.789062 261.710938 63.449219 268.371094 70.105469 268.371094 L 189.992188 268.371094 C 196.65625 268.371094 203.320312 261.710938 203.320312 255.050781 L 203.320312 188.445312 L 209.976562 188.445312 C 216.636719 188.445312 216.636719 195.109375 216.636719 195.109375 L 216.636719 221.746094 C 216.636719 235.070312 223.296875 241.726562 236.617188 241.726562 C 249.9375 241.726562 256.601562 235.070312 256.601562 221.746094 C 256.601562 206.207031 256.601562 161.800781 256.601562 148.480469 C 256.601562 135.164062 229.957031 121.839844 229.957031 108.519531 Z M 176.675781 108.519531 L 83.429688 108.519531 L 83.429688 55.238281 L 176.675781 55.238281 Z M 243.285156 221.746094 C 243.285156 228.40625 236.621094 228.40625 236.621094 228.40625 C 236.621094 228.40625 229.960938 228.40625 229.960938 221.746094 C 229.960938 221.746094 229.960938 195.109375 229.960938 188.445312 C 229.960938 181.78125 223.304688 175.128906 216.640625 175.128906 C 212.199219 175.128906 203.320312 175.128906 203.320312 175.128906 L 203.320312 95.199219 L 216.640625 95.199219 C 216.640625 95.199219 216.640625 106.300781 216.640625 115.179688 C 216.640625 128.5 243.285156 141.820312 243.285156 155.144531 Z M 243.285156 221.746094 " fill-opacity="1" fill-rule="nonzero"/></g><g fill="#000000" fill-opacity="1"><g transform="translate(55.553398, 199.974229)"><g><path d="M 29.21875 -15.578125 C 29.21875 -10.546875 27.785156 -6.691406 24.921875 -4.015625 C 22.054688 -1.335938 17.914062 0 12.5 0 L 3.84375 0 L 3.84375 -30.578125 L 13.453125 -30.578125 C 18.441406 -30.578125 22.316406 -29.257812 25.078125 -26.625 C 27.835938 -23.988281 29.21875 -20.304688 29.21875 -15.578125 Z M 22.484375 -15.40625 C 22.484375 -21.976562 19.582031 -25.265625 13.78125 -25.265625 L 10.328125 -25.265625 L 10.328125 -5.359375 L 13.109375 -5.359375 C 19.359375 -5.359375 22.484375 -8.707031 22.484375 -15.40625 Z M 22.484375 -15.40625 "/></g></g><g transform="translate(87.252068, 199.974229)"><g><path d="M 3.078125 -29.421875 C 3.078125 -31.503906 4.234375 -32.546875 6.546875 -32.546875 C 8.859375 -32.546875 10.015625 -31.503906 10.015625 -29.421875 C 10.015625 -28.429688 9.722656 -27.660156 9.140625 -27.109375 C 8.566406 -26.554688 7.703125 -26.28125 6.546875 -26.28125 C 4.234375 -26.28125 3.078125 -27.328125 3.078125 -29.421875 Z M 9.71875 0 L 3.34375 0 L 3.34375 -23.375 L 9.71875 -23.375 Z M 9.71875 0 "/></g></g><g transform="translate(100.320451, 199.974229)"><g><path d="M 13.03125 -19.28125 C 11.675781 -19.28125 10.613281 -18.847656 9.84375 -17.984375 C 9.082031 -17.128906 8.644531 -15.914062 8.53125 -14.34375 L 17.484375 -14.34375 C 17.453125 -15.914062 17.039062 -17.128906 16.25 -17.984375 C 15.457031 -18.847656 14.382812 -19.28125 13.03125 -19.28125 Z M 13.921875 0.421875 C 10.160156 0.421875 7.21875 -0.613281 5.09375 -2.6875 C 2.976562 -4.769531 1.921875 -7.710938 1.921875 -11.515625 C 1.921875 -15.441406 2.898438 -18.472656 4.859375 -20.609375 C 6.816406 -22.742188 9.523438 -23.8125 12.984375 -23.8125 C 16.285156 -23.8125 18.859375 -22.867188 20.703125 -20.984375 C 22.546875 -19.109375 23.46875 -16.515625 23.46875 -13.203125 L 23.46875 -10.09375 L 8.390625 -10.09375 C 8.453125 -8.28125 8.984375 -6.863281 9.984375 -5.84375 C 10.992188 -4.832031 12.40625 -4.328125 14.21875 -4.328125 C 15.625 -4.328125 16.953125 -4.472656 18.203125 -4.765625 C 19.460938 -5.054688 20.773438 -5.523438 22.140625 -6.171875 L 22.140625 -1.234375 C 21.023438 -0.671875 19.832031 -0.253906 18.5625 0.015625 C 17.300781 0.285156 15.753906 0.421875 13.921875 0.421875 Z M 13.921875 0.421875 "/></g></g><g transform="translate(125.62084, 199.974229)"><g><path d="M 19.65625 -6.9375 C 19.65625 -4.539062 18.820312 -2.710938 17.15625 -1.453125 C 15.488281 -0.203125 13 0.421875 9.6875 0.421875 C 7.976562 0.421875 6.523438 0.304688 5.328125 0.078125 C 4.128906 -0.148438 3.007812 -0.488281 1.96875 -0.9375 L 1.96875 -6.203125 C 3.15625 -5.648438 4.488281 -5.1875 5.96875 -4.8125 C 7.457031 -4.4375 8.765625 -4.25 9.890625 -4.25 C 12.203125 -4.25 13.359375 -4.914062 13.359375 -6.25 C 13.359375 -6.75 13.203125 -7.15625 12.890625 -7.46875 C 12.585938 -7.789062 12.0625 -8.148438 11.3125 -8.546875 C 10.5625 -8.941406 9.554688 -9.40625 8.296875 -9.9375 C 6.503906 -10.6875 5.1875 -11.378906 4.34375 -12.015625 C 3.5 -12.660156 2.882812 -13.394531 2.5 -14.21875 C 2.113281 -15.050781 1.921875 -16.078125 1.921875 -17.296875 C 1.921875 -19.367188 2.722656 -20.972656 4.328125 -22.109375 C 5.941406 -23.242188 8.226562 -23.8125 11.1875 -23.8125 C 14 -23.8125 16.738281 -23.203125 19.40625 -21.984375 L 17.484375 -17.375 C 16.304688 -17.875 15.207031 -18.285156 14.1875 -18.609375 C 13.175781 -18.929688 12.140625 -19.09375 11.078125 -19.09375 C 9.203125 -19.09375 8.265625 -18.582031 8.265625 -17.5625 C 8.265625 -16.988281 8.566406 -16.492188 9.171875 -16.078125 C 9.773438 -15.660156 11.101562 -15.039062 13.15625 -14.21875 C 14.976562 -13.476562 16.3125 -12.785156 17.15625 -12.140625 C 18.007812 -11.503906 18.640625 -10.765625 19.046875 -9.921875 C 19.453125 -9.085938 19.65625 -8.09375 19.65625 -6.9375 Z M 19.65625 -6.9375 "/></g></g><g transform="translate(146.906623, 199.974229)"><g><path d="M 13.03125 -19.28125 C 11.675781 -19.28125 10.613281 -18.847656 9.84375 -17.984375 C 9.082031 -17.128906 8.644531 -15.914062 8.53125 -14.34375 L 17.484375 -14.34375 C 17.453125 -15.914062 17.039062 -17.128906 16.25 -17.984375 C 15.457031 -18.847656 14.382812 -19.28125 13.03125 -19.28125 Z M 13.921875 0.421875 C 10.160156 0.421875 7.21875 -0.613281 5.09375 -2.6875 C 2.976562 -4.769531 1.921875 -7.710938 1.921875 -11.515625 C 1.921875 -15.441406 2.898438 -18.472656 4.859375 -20.609375 C 6.816406 -22.742188 9.523438 -23.8125 12.984375 -23.8125 C 16.285156 -23.8125 18.859375 -22.867188 20.703125 -20.984375 C 22.546875 -19.109375 23.46875 -16.515625 23.46875 -13.203125 L 23.46875 -10.09375 L 8.390625 -10.09375 C 8.453125 -8.28125 8.984375 -6.863281 9.984375 -5.84375 C 10.992188 -4.832031 12.40625 -4.328125 14.21875 -4.328125 C 15.625 -4.328125 16.953125 -4.472656 18.203125 -4.765625 C 19.460938 -5.054688 20.773438 -5.523438 22.140625 -6.171875 L 22.140625 -1.234375 C 21.023438 -0.671875 19.832031 -0.253906 18.5625 0.015625 C 17.300781 0.285156 15.753906 0.421875 13.921875 0.421875 Z M 13.921875 0.421875 "/></g></g><g transform="translate(172.207012, 199.974229)"><g><path d="M 9.71875 0 L 3.34375 0 L 3.34375 -32.546875 L 9.71875 -32.546875 Z M 9.71875 0 "/></g></g><g transform="translate(185.275395, 199.974229)"><g><path d="M 19.65625 -6.9375 C 19.65625 -4.539062 18.820312 -2.710938 17.15625 -1.453125 C 15.488281 -0.203125 13 0.421875 9.6875 0.421875 C 7.976562 0.421875 6.523438 0.304688 5.328125 0.078125 C 4.128906 -0.148438 3.007812 -0.488281 1.96875 -0.9375 L 1.96875 -6.203125 C 3.15625 -5.648438 4.488281 -5.1875 5.96875 -4.8125 C 7.457031 -4.4375 8.765625 -4.25 9.890625 -4.25 C 12.203125 -4.25 13.359375 -4.914062 13.359375 -6.25 C 13.359375 -6.75 13.203125 -7.15625 12.890625 -7.46875 C 12.585938 -7.789062 12.0625 -8.148438 11.3125 -8.546875 C 10.5625 -8.941406 9.554688 -9.40625 8.296875 -9.9375 C 6.503906 -10.6875 5.1875 -11.378906 4.34375 -12.015625 C 3.5 -12.660156 2.882812 -13.394531 2.5 -14.21875 C 2.113281 -15.050781 1.921875 -16.078125 1.921875 -17.296875 C 1.921875 -19.367188 2.722656 -20.972656 4.328125 -22.109375 C 5.941406 -23.242188 8.226562 -23.8125 11.1875 -23.8125 C 14 -23.8125 16.738281 -23.203125 19.40625 -21.984375 L 17.484375 -17.375 C 16.304688 -17.875 15.207031 -18.285156 14.1875 -18.609375 C 13.175781 -18.929688 12.140625 -19.09375 11.078125 -19.09375 C 9.203125 -19.09375 8.265625 -18.582031 8.265625 -17.5625 C 8.265625 -16.988281 8.566406 -16.492188 9.171875 -16.078125 C 9.773438 -15.660156 11.101562 -15.039062 13.15625 -14.21875 C 14.976562 -13.476562 16.3125 -12.785156 17.15625 -12.140625 C 18.007812 -11.503906 18.640625 -10.765625 19.046875 -9.921875 C 19.453125 -9.085938 19.65625 -8.09375 19.65625 -6.9375 Z M 19.65625 -6.9375 "/></g></g></g><g fill="#000000" fill-opacity="1"><g transform="translate(206.569542, 199.974229)"><g/></g></g><g clip-path="url(#80d50f02e9)"><path fill="#ff3131" d="M 136.617188 70.171875 C 83.582031 70.171875 40.433594 113.320312 40.433594 166.355469 C 40.433594 219.390625 83.582031 262.539062 136.617188 262.539062 C 189.65625 262.539062 232.800781 219.390625 232.800781 166.355469 C 232.800781 113.320312 189.65625 70.171875 136.617188 70.171875 Z M 136.617188 274.675781 C 121.996094 274.675781 107.8125 271.8125 94.453125 266.164062 C 81.554688 260.707031 69.96875 252.898438 60.023438 242.949219 C 50.078125 233.003906 42.265625 221.421875 36.8125 208.519531 C 31.160156 195.164062 28.296875 180.976562 28.296875 166.355469 C 28.296875 151.734375 31.160156 137.550781 36.8125 124.191406 C 42.265625 111.289062 50.078125 99.707031 60.023438 89.761719 C 69.96875 79.816406 81.554688 72.003906 94.453125 66.550781 C 107.8125 60.898438 121.996094 58.035156 136.617188 58.035156 C 151.238281 58.035156 165.425781 60.898438 178.785156 66.550781 C 191.683594 72.003906 203.265625 79.816406 213.210938 89.761719 C 223.160156 99.707031 230.96875 111.289062 236.425781 124.191406 C 242.074219 137.550781 244.941406 151.734375 244.941406 166.355469 C 244.941406 180.976562 242.074219 195.164062 236.425781 208.519531 C 230.96875 221.421875 223.160156 233.003906 213.210938 242.949219 C 203.265625 252.898438 191.683594 260.707031 178.785156 266.164062 C 165.425781 271.8125 151.238281 274.675781 136.617188 274.675781 " fill-opacity="1" fill-rule="nonzero"/></g><path fill="#ff3131" d="M 189.660156 254.273438 L 72.472656 86.535156 L 82.425781 79.582031 L 199.613281 247.324219 L 189.660156 254.273438 " fill-opacity="1" fill-rule="nonzero"/></svg>