<svg xmlns="http://www.w3.org/2000/svg" xmlns:xlink="http://www.w3.org/1999/xlink" width="377" zoomAndPan="magnify" viewBox="0 0 282.96 283.499996" height="377" preserveAspectRatio="xMidYMid meet" version="1.0"><defs><g/><clipPath id="ba52096c35"><path d="M 57.015625 28.296875 L 256.914062 28.296875 L 256.914062 268.621094 L 57.015625 268.621094 Z M 57.015625 28.296875 " clip-rule="nonzero"/></clipPath><clipPath id="ef509e3f29"><path d="M 4 0 L 255 0 L 255 283 L 4 283 Z M 4 0 " clip-rule="nonzero"/></clipPath></defs><g clip-path="url(#ba52096c35)"><path fill="#737373" d="M 230.1875 108.519531 L 230.1875 68.558594 L 216.867188 68.558594 L 203.546875 55.238281 L 203.546875 41.914062 C 203.550781 34.535156 197.601562 28.59375 190.222656 28.59375 L 70.335938 28.59375 C 62.957031 28.59375 57.015625 34.535156 57.015625 41.914062 L 57.015625 255.050781 C 57.015625 261.710938 63.679688 268.371094 70.335938 268.371094 L 190.222656 268.371094 C 196.886719 268.371094 203.550781 261.710938 203.550781 255.050781 L 203.550781 188.445312 L 210.207031 188.445312 C 216.867188 188.445312 216.867188 195.109375 216.867188 195.109375 L 216.867188 221.746094 C 216.867188 235.070312 223.527344 241.726562 236.847656 241.726562 C 250.167969 241.726562 256.828125 235.070312 256.828125 221.746094 C 256.828125 206.207031 256.828125 161.800781 256.828125 148.480469 C 256.828125 135.164062 230.1875 121.839844 230.1875 108.519531 Z M 176.90625 108.519531 L 83.660156 108.519531 L 83.660156 55.238281 L 176.90625 55.238281 Z M 243.511719 221.746094 C 243.511719 228.40625 236.847656 228.40625 236.847656 228.40625 C 236.847656 228.40625 230.1875 228.40625 230.1875 221.746094 C 230.1875 221.746094 230.1875 195.109375 230.1875 188.445312 C 230.1875 181.78125 223.53125 175.125 216.867188 175.125 C 212.429688 175.125 203.550781 175.125 203.550781 175.125 L 203.550781 95.199219 L 216.867188 95.199219 C 216.867188 95.199219 216.867188 106.300781 216.867188 115.179688 C 216.867188 128.5 243.511719 141.820312 243.511719 155.144531 Z M 243.511719 221.746094 " fill-opacity="1" fill-rule="nonzero"/></g><g fill="#000000" fill-opacity="1"><g transform="translate(56.788556, 191.922229)"><g><path d="M 30.5625 -16.296875 C 30.5625 -11.035156 29.0625 -7.003906 26.0625 -4.203125 C 23.070312 -1.398438 18.742188 0 13.078125 0 L 4.03125 0 L 4.03125 -31.984375 L 14.0625 -31.984375 C 19.289062 -31.984375 23.347656 -30.601562 26.234375 -27.84375 C 29.117188 -25.09375 30.5625 -21.242188 30.5625 -16.296875 Z M 23.515625 -16.125 C 23.515625 -23 20.484375 -26.4375 14.421875 -26.4375 L 10.8125 -26.4375 L 10.8125 -5.609375 L 13.71875 -5.609375 C 20.25 -5.609375 23.515625 -9.113281 23.515625 -16.125 Z M 23.515625 -16.125 "/></g></g></g><g fill="#000000" fill-opacity="1"><g transform="translate(89.962522, 191.922229)"><g><path d="M 3.21875 -30.78125 C 3.21875 -32.957031 4.425781 -34.046875 6.84375 -34.046875 C 9.269531 -34.046875 10.484375 -32.957031 10.484375 -30.78125 C 10.484375 -29.75 10.179688 -28.941406 9.578125 -28.359375 C 8.972656 -27.785156 8.0625 -27.5 6.84375 -27.5 C 4.425781 -27.5 3.21875 -28.59375 3.21875 -30.78125 Z M 10.171875 0 L 3.5 0 L 3.5 -24.46875 L 10.171875 -24.46875 Z M 10.171875 0 "/></g></g></g><g fill="#000000" fill-opacity="1"><g transform="translate(103.63913, 191.922229)"><g><path d="M 13.625 -20.171875 C 12.21875 -20.171875 11.113281 -19.722656 10.3125 -18.828125 C 9.507812 -17.929688 9.046875 -16.660156 8.921875 -15.015625 L 18.296875 -15.015625 C 18.265625 -16.660156 17.832031 -17.929688 17 -18.828125 C 16.164062 -19.722656 15.039062 -20.171875 13.625 -20.171875 Z M 14.578125 0.4375 C 10.640625 0.4375 7.5625 -0.644531 5.34375 -2.8125 C 3.125 -4.988281 2.015625 -8.070312 2.015625 -12.0625 C 2.015625 -16.15625 3.035156 -19.320312 5.078125 -21.5625 C 7.128906 -23.800781 9.96875 -24.921875 13.59375 -24.921875 C 17.050781 -24.921875 19.738281 -23.9375 21.65625 -21.96875 C 23.582031 -20 24.546875 -17.28125 24.546875 -13.8125 L 24.546875 -10.5625 L 8.78125 -10.5625 C 8.851562 -8.664062 9.410156 -7.1875 10.453125 -6.125 C 11.503906 -5.0625 12.976562 -4.53125 14.875 -4.53125 C 16.351562 -4.53125 17.75 -4.679688 19.0625 -4.984375 C 20.375 -5.296875 21.742188 -5.785156 23.171875 -6.453125 L 23.171875 -1.296875 C 22.003906 -0.710938 20.753906 -0.28125 19.421875 0 C 18.097656 0.289062 16.484375 0.4375 14.578125 0.4375 Z M 14.578125 0.4375 "/></g></g></g><g fill="#000000" fill-opacity="1"><g transform="translate(130.117031, 191.922229)"><g><path d="M 20.5625 -7.265625 C 20.5625 -4.753906 19.691406 -2.84375 17.953125 -1.53125 C 16.210938 -0.21875 13.601562 0.4375 10.125 0.4375 C 8.351562 0.4375 6.835938 0.316406 5.578125 0.078125 C 4.328125 -0.160156 3.15625 -0.515625 2.0625 -0.984375 L 2.0625 -6.5 C 3.300781 -5.914062 4.695312 -5.425781 6.25 -5.03125 C 7.800781 -4.632812 9.164062 -4.4375 10.34375 -4.4375 C 12.769531 -4.4375 13.984375 -5.140625 13.984375 -6.546875 C 13.984375 -7.066406 13.820312 -7.488281 13.5 -7.8125 C 13.175781 -8.144531 12.617188 -8.519531 11.828125 -8.9375 C 11.046875 -9.351562 10 -9.835938 8.6875 -10.390625 C 6.800781 -11.179688 5.414062 -11.910156 4.53125 -12.578125 C 3.65625 -13.253906 3.015625 -14.023438 2.609375 -14.890625 C 2.210938 -15.753906 2.015625 -16.820312 2.015625 -18.09375 C 2.015625 -20.269531 2.851562 -21.953125 4.53125 -23.140625 C 6.21875 -24.328125 8.609375 -24.921875 11.703125 -24.921875 C 14.648438 -24.921875 17.519531 -24.28125 20.3125 -23 L 18.296875 -18.1875 C 17.066406 -18.707031 15.921875 -19.132812 14.859375 -19.46875 C 13.796875 -19.8125 12.707031 -19.984375 11.59375 -19.984375 C 9.625 -19.984375 8.640625 -19.445312 8.640625 -18.375 C 8.640625 -17.78125 8.957031 -17.265625 9.59375 -16.828125 C 10.226562 -16.390625 11.617188 -15.738281 13.765625 -14.875 C 15.671875 -14.101562 17.066406 -13.378906 17.953125 -12.703125 C 18.847656 -12.035156 19.503906 -11.265625 19.921875 -10.390625 C 20.347656 -9.515625 20.5625 -8.472656 20.5625 -7.265625 Z M 20.5625 -7.265625 "/></g></g></g><g fill="#000000" fill-opacity="1"><g transform="translate(152.39348, 191.922229)"><g><path d="M 13.625 -20.171875 C 12.21875 -20.171875 11.113281 -19.722656 10.3125 -18.828125 C 9.507812 -17.929688 9.046875 -16.660156 8.921875 -15.015625 L 18.296875 -15.015625 C 18.265625 -16.660156 17.832031 -17.929688 17 -18.828125 C 16.164062 -19.722656 15.039062 -20.171875 13.625 -20.171875 Z M 14.578125 0.4375 C 10.640625 0.4375 7.5625 -0.644531 5.34375 -2.8125 C 3.125 -4.988281 2.015625 -8.070312 2.015625 -12.0625 C 2.015625 -16.15625 3.035156 -19.320312 5.078125 -21.5625 C 7.128906 -23.800781 9.96875 -24.921875 13.59375 -24.921875 C 17.050781 -24.921875 19.738281 -23.9375 21.65625 -21.96875 C 23.582031 -20 24.546875 -17.28125 24.546875 -13.8125 L 24.546875 -10.5625 L 8.78125 -10.5625 C 8.851562 -8.664062 9.410156 -7.1875 10.453125 -6.125 C 11.503906 -5.0625 12.976562 -4.53125 14.875 -4.53125 C 16.351562 -4.53125 17.75 -4.679688 19.0625 -4.984375 C 20.375 -5.296875 21.742188 -5.785156 23.171875 -6.453125 L 23.171875 -1.296875 C 22.003906 -0.710938 20.753906 -0.28125 19.421875 0 C 18.097656 0.289062 16.484375 0.4375 14.578125 0.4375 Z M 14.578125 0.4375 "/></g></g></g><g fill="#000000" fill-opacity="1"><g transform="translate(178.871382, 191.922229)"><g><path d="M 10.171875 0 L 3.5 0 L 3.5 -34.046875 L 10.171875 -34.046875 Z M 10.171875 0 "/></g></g></g><g fill="#000000" fill-opacity="1"><g transform="translate(192.547989, 191.922229)"><g><path d="M 20.5625 -7.265625 C 20.5625 -4.753906 19.691406 -2.84375 17.953125 -1.53125 C 16.210938 -0.21875 13.601562 0.4375 10.125 0.4375 C 8.351562 0.4375 6.835938 0.316406 5.578125 0.078125 C 4.328125 -0.160156 3.15625 -0.515625 2.0625 -0.984375 L 2.0625 -6.5 C 3.300781 -5.914062 4.695312 -5.425781 6.25 -5.03125 C 7.800781 -4.632812 9.164062 -4.4375 10.34375 -4.4375 C 12.769531 -4.4375 13.984375 -5.140625 13.984375 -6.546875 C 13.984375 -7.066406 13.820312 -7.488281 13.5 -7.8125 C 13.175781 -8.144531 12.617188 -8.519531 11.828125 -8.9375 C 11.046875 -9.351562 10 -9.835938 8.6875 -10.390625 C 6.800781 -11.179688 5.414062 -11.910156 4.53125 -12.578125 C 3.65625 -13.253906 3.015625 -14.023438 2.609375 -14.890625 C 2.210938 -15.753906 2.015625 -16.820312 2.015625 -18.09375 C 2.015625 -20.269531 2.851562 -21.953125 4.53125 -23.140625 C 6.21875 -24.328125 8.609375 -24.921875 11.703125 -24.921875 C 14.648438 -24.921875 17.519531 -24.28125 20.3125 -23 L 18.296875 -18.1875 C 17.066406 -18.707031 15.921875 -19.132812 14.859375 -19.46875 C 13.796875 -19.8125 12.707031 -19.984375 11.59375 -19.984375 C 9.625 -19.984375 8.640625 -19.445312 8.640625 -18.375 C 8.640625 -17.78125 8.957031 -17.265625 9.59375 -16.828125 C 10.226562 -16.390625 11.617188 -15.738281 13.765625 -14.875 C 15.671875 -14.101562 17.066406 -13.378906 17.953125 -12.703125 C 18.847656 -12.035156 19.503906 -11.265625 19.921875 -10.390625 C 20.347656 -9.515625 20.5625 -8.472656 20.5625 -7.265625 Z M 20.5625 -7.265625 "/></g></g></g><g fill="#000000" fill-opacity="1"><g transform="translate(214.830127, 191.922229)"><g/></g></g><g clip-path="url(#ef509e3f29)"><path stroke-linecap="butt" transform="matrix(0.392322, 0.637656, -0.637656, 0.392322, 59.60623, 25.946588)" fill="none" stroke-linejoin="miter" d="M 0.000965892 5.999099 L 376.980977 5.997624 " stroke="#f40606" stroke-width="12" stroke-opacity="1" stroke-miterlimit="4"/></g></svg>