<svg xmlns="http://www.w3.org/2000/svg" xmlns:xlink="http://www.w3.org/1999/xlink" width="377" zoomAndPan="magnify" viewBox="0 0 283.5 283.500005" height="377" preserveAspectRatio="xMidYMid meet" version="1.0"><defs><g/><clipPath id="f3a0076e8a"><path d="M 56.789062 28.296875 L 256.683594 28.296875 L 256.683594 268.621094 L 56.789062 268.621094 Z M 56.789062 28.296875 " clip-rule="nonzero"/></clipPath></defs><g clip-path="url(#f3a0076e8a)"><path fill="#dd2020" d="M 229.957031 108.519531 L 229.957031 68.558594 L 216.636719 68.558594 L 203.316406 55.238281 L 203.316406 41.914062 C 203.320312 34.535156 197.375 28.59375 189.992188 28.59375 L 70.105469 28.59375 C 62.730469 28.59375 56.789062 34.535156 56.789062 41.914062 L 56.789062 255.050781 C 56.789062 261.710938 63.449219 268.371094 70.105469 268.371094 L 189.992188 268.371094 C 196.65625 268.371094 203.320312 261.710938 203.320312 255.050781 L 203.320312 188.445312 L 209.976562 188.445312 C 216.636719 188.445312 216.636719 195.109375 216.636719 195.109375 L 216.636719 221.746094 C 216.636719 235.070312 223.296875 241.726562 236.617188 241.726562 C 249.9375 241.726562 256.601562 235.070312 256.601562 221.746094 C 256.601562 206.207031 256.601562 161.800781 256.601562 148.480469 C 256.601562 135.164062 229.957031 121.839844 229.957031 108.519531 Z M 176.675781 108.519531 L 83.429688 108.519531 L 83.429688 55.238281 L 176.675781 55.238281 Z M 243.285156 221.746094 C 243.285156 228.40625 236.621094 228.40625 236.621094 228.40625 C 236.621094 228.40625 229.960938 228.40625 229.960938 221.746094 C 229.960938 221.746094 229.960938 195.109375 229.960938 188.445312 C 229.960938 181.78125 223.304688 175.128906 216.640625 175.128906 C 212.199219 175.128906 203.320312 175.128906 203.320312 175.128906 L 203.320312 95.199219 L 216.640625 95.199219 C 216.640625 95.199219 216.640625 106.300781 216.640625 115.179688 C 216.640625 128.5 243.285156 141.820312 243.285156 155.144531 Z M 243.285156 221.746094 " fill-opacity="1" fill-rule="nonzero"/></g><g fill="#000000" fill-opacity="1"><g transform="translate(61.871045, 192.364804)"><g><path d="M 26.109375 -13.921875 C 26.109375 -9.421875 24.828125 -5.972656 22.265625 -3.578125 C 19.710938 -1.191406 16.015625 0 11.171875 0 L 3.4375 0 L 3.4375 -27.328125 L 12.015625 -27.328125 C 16.472656 -27.328125 19.9375 -26.148438 22.40625 -23.796875 C 24.875 -21.441406 26.109375 -18.148438 26.109375 -13.921875 Z M 20.09375 -13.78125 C 20.09375 -19.644531 17.5 -22.578125 12.3125 -22.578125 L 9.234375 -22.578125 L 9.234375 -4.78125 L 11.71875 -4.78125 C 17.300781 -4.78125 20.09375 -7.78125 20.09375 -13.78125 Z M 20.09375 -13.78125 "/></g></g><g transform="translate(90.210118, 192.364804)"><g><path d="M 2.75 -26.296875 C 2.75 -28.148438 3.78125 -29.078125 5.84375 -29.078125 C 7.914062 -29.078125 8.953125 -28.148438 8.953125 -26.296875 C 8.953125 -25.410156 8.691406 -24.722656 8.171875 -24.234375 C 7.660156 -23.742188 6.882812 -23.5 5.84375 -23.5 C 3.78125 -23.5 2.75 -24.429688 2.75 -26.296875 Z M 8.6875 0 L 2.984375 0 L 2.984375 -20.890625 L 8.6875 -20.890625 Z M 8.6875 0 "/></g></g><g transform="translate(101.893443, 192.364804)"><g><path d="M 11.640625 -17.234375 C 10.429688 -17.234375 9.484375 -16.847656 8.796875 -16.078125 C 8.117188 -15.316406 7.726562 -14.234375 7.625 -12.828125 L 15.625 -12.828125 C 15.601562 -14.234375 15.234375 -15.316406 14.515625 -16.078125 C 13.804688 -16.847656 12.847656 -17.234375 11.640625 -17.234375 Z M 12.453125 0.375 C 9.085938 0.375 6.457031 -0.550781 4.5625 -2.40625 C 2.664062 -4.269531 1.71875 -6.898438 1.71875 -10.296875 C 1.71875 -13.796875 2.59375 -16.503906 4.34375 -18.421875 C 6.09375 -20.335938 8.515625 -21.296875 11.609375 -21.296875 C 14.554688 -21.296875 16.851562 -20.453125 18.5 -18.765625 C 20.144531 -17.085938 20.96875 -14.765625 20.96875 -11.796875 L 20.96875 -9.03125 L 7.5 -9.03125 C 7.5625 -7.40625 8.039062 -6.140625 8.9375 -5.234375 C 9.832031 -4.328125 11.085938 -3.875 12.703125 -3.875 C 13.960938 -3.875 15.15625 -4.003906 16.28125 -4.265625 C 17.40625 -4.523438 18.578125 -4.941406 19.796875 -5.515625 L 19.796875 -1.109375 C 18.796875 -0.609375 17.726562 -0.238281 16.59375 0 C 15.457031 0.25 14.078125 0.375 12.453125 0.375 Z M 12.453125 0.375 "/></g></g><g transform="translate(124.51236, 192.364804)"><g><path d="M 17.578125 -6.203125 C 17.578125 -4.054688 16.832031 -2.421875 15.34375 -1.296875 C 13.851562 -0.179688 11.625 0.375 8.65625 0.375 C 7.132812 0.375 5.835938 0.269531 4.765625 0.0625 C 3.691406 -0.144531 2.6875 -0.445312 1.75 -0.84375 L 1.75 -5.546875 C 2.8125 -5.046875 4.003906 -4.628906 5.328125 -4.296875 C 6.660156 -3.960938 7.832031 -3.796875 8.84375 -3.796875 C 10.90625 -3.796875 11.9375 -4.394531 11.9375 -5.59375 C 11.9375 -6.039062 11.800781 -6.40625 11.53125 -6.6875 C 11.257812 -6.96875 10.785156 -7.285156 10.109375 -7.640625 C 9.441406 -7.992188 8.546875 -8.40625 7.421875 -8.875 C 5.816406 -9.550781 4.632812 -10.175781 3.875 -10.75 C 3.125 -11.320312 2.578125 -11.976562 2.234375 -12.71875 C 1.890625 -13.457031 1.71875 -14.367188 1.71875 -15.453125 C 1.71875 -17.316406 2.4375 -18.753906 3.875 -19.765625 C 5.3125 -20.785156 7.351562 -21.296875 10 -21.296875 C 12.519531 -21.296875 14.96875 -20.742188 17.34375 -19.640625 L 15.625 -15.53125 C 14.582031 -15.976562 13.601562 -16.34375 12.6875 -16.625 C 11.78125 -16.914062 10.851562 -17.0625 9.90625 -17.0625 C 8.226562 -17.0625 7.390625 -16.609375 7.390625 -15.703125 C 7.390625 -15.191406 7.660156 -14.75 8.203125 -14.375 C 8.742188 -14 9.925781 -13.441406 11.75 -12.703125 C 13.382812 -12.046875 14.582031 -11.429688 15.34375 -10.859375 C 16.101562 -10.285156 16.664062 -9.625 17.03125 -8.875 C 17.394531 -8.125 17.578125 -7.234375 17.578125 -6.203125 Z M 17.578125 -6.203125 "/></g></g><g transform="translate(143.542159, 192.364804)"><g><path d="M 11.640625 -17.234375 C 10.429688 -17.234375 9.484375 -16.847656 8.796875 -16.078125 C 8.117188 -15.316406 7.726562 -14.234375 7.625 -12.828125 L 15.625 -12.828125 C 15.601562 -14.234375 15.234375 -15.316406 14.515625 -16.078125 C 13.804688 -16.847656 12.847656 -17.234375 11.640625 -17.234375 Z M 12.453125 0.375 C 9.085938 0.375 6.457031 -0.550781 4.5625 -2.40625 C 2.664062 -4.269531 1.71875 -6.898438 1.71875 -10.296875 C 1.71875 -13.796875 2.59375 -16.503906 4.34375 -18.421875 C 6.09375 -20.335938 8.515625 -21.296875 11.609375 -21.296875 C 14.554688 -21.296875 16.851562 -20.453125 18.5 -18.765625 C 20.144531 -17.085938 20.96875 -14.765625 20.96875 -11.796875 L 20.96875 -9.03125 L 7.5 -9.03125 C 7.5625 -7.40625 8.039062 -6.140625 8.9375 -5.234375 C 9.832031 -4.328125 11.085938 -3.875 12.703125 -3.875 C 13.960938 -3.875 15.15625 -4.003906 16.28125 -4.265625 C 17.40625 -4.523438 18.578125 -4.941406 19.796875 -5.515625 L 19.796875 -1.109375 C 18.796875 -0.609375 17.726562 -0.238281 16.59375 0 C 15.457031 0.25 14.078125 0.375 12.453125 0.375 Z M 12.453125 0.375 "/></g></g><g transform="translate(166.161075, 192.364804)"><g><path d="M 8.6875 0 L 2.984375 0 L 2.984375 -29.078125 L 8.6875 -29.078125 Z M 8.6875 0 "/></g></g><g transform="translate(177.8444, 192.364804)"><g><path d="M 17.578125 -6.203125 C 17.578125 -4.054688 16.832031 -2.421875 15.34375 -1.296875 C 13.851562 -0.179688 11.625 0.375 8.65625 0.375 C 7.132812 0.375 5.835938 0.269531 4.765625 0.0625 C 3.691406 -0.144531 2.6875 -0.445312 1.75 -0.84375 L 1.75 -5.546875 C 2.8125 -5.046875 4.003906 -4.628906 5.328125 -4.296875 C 6.660156 -3.960938 7.832031 -3.796875 8.84375 -3.796875 C 10.90625 -3.796875 11.9375 -4.394531 11.9375 -5.59375 C 11.9375 -6.039062 11.800781 -6.40625 11.53125 -6.6875 C 11.257812 -6.96875 10.785156 -7.285156 10.109375 -7.640625 C 9.441406 -7.992188 8.546875 -8.40625 7.421875 -8.875 C 5.816406 -9.550781 4.632812 -10.175781 3.875 -10.75 C 3.125 -11.320312 2.578125 -11.976562 2.234375 -12.71875 C 1.890625 -13.457031 1.71875 -14.367188 1.71875 -15.453125 C 1.71875 -17.316406 2.4375 -18.753906 3.875 -19.765625 C 5.3125 -20.785156 7.351562 -21.296875 10 -21.296875 C 12.519531 -21.296875 14.96875 -20.742188 17.34375 -19.640625 L 15.625 -15.53125 C 14.582031 -15.976562 13.601562 -16.34375 12.6875 -16.625 C 11.78125 -16.914062 10.851562 -17.0625 9.90625 -17.0625 C 8.226562 -17.0625 7.390625 -16.609375 7.390625 -15.703125 C 7.390625 -15.191406 7.660156 -14.75 8.203125 -14.375 C 8.742188 -14 9.925781 -13.441406 11.75 -12.703125 C 13.382812 -12.046875 14.582031 -11.429688 15.34375 -10.859375 C 16.101562 -10.285156 16.664062 -9.625 17.03125 -8.875 C 17.394531 -8.125 17.578125 -7.234375 17.578125 -6.203125 Z M 17.578125 -6.203125 "/></g></g></g><g fill="#000000" fill-opacity="1"><g transform="translate(196.881677, 192.364804)"><g/></g></g></svg>