<svg xmlns="http://www.w3.org/2000/svg" xmlns:xlink="http://www.w3.org/1999/xlink" width="793" zoomAndPan="magnify" viewBox="0 0 595.5 842.249979" height="1122" preserveAspectRatio="xMidYMid meet" version="1.0"><defs><clipPath id="fc87847433"><path d="M 52.554688 175.734375 L 541.867188 175.734375 L 541.867188 665.050781 L 52.554688 665.050781 Z M 52.554688 175.734375 " clip-rule="nonzero"/></clipPath></defs><g clip-path="url(#fc87847433)"><path fill="#000000" d="M 297.210938 175.734375 C 162.160156 175.734375 52.554688 285.34375 52.554688 420.394531 C 52.554688 555.445312 162.160156 665.050781 297.210938 665.050781 C 432.261719 665.050781 541.867188 555.445312 541.867188 420.394531 C 541.867188 285.34375 432.261719 175.734375 297.210938 175.734375 Z M 297.210938 616.117188 C 189.070312 616.117188 101.484375 528.53125 101.484375 420.394531 C 101.484375 375.132812 116.898438 333.539062 142.832031 300.511719 L 417.09375 574.773438 C 384.0625 600.707031 342.472656 616.117188 297.210938 616.117188 Z M 451.589844 540.273438 L 177.328125 266.015625 C 210.355469 240.082031 251.949219 224.667969 297.210938 224.667969 C 405.347656 224.667969 492.9375 312.253906 492.9375 420.394531 C 492.9375 465.65625 477.523438 507.246094 451.589844 540.273438 Z M 451.589844 540.273438 " fill-opacity="1" fill-rule="nonzero"/></g></svg>