<svg xmlns="http://www.w3.org/2000/svg" xmlns:xlink="http://www.w3.org/1999/xlink" width="500" zoomAndPan="magnify" viewBox="0 0 375 374.999991" height="500" preserveAspectRatio="xMidYMid meet" version="1.0"><defs><clipPath id="38333bd7fa"><path d="M 3.703125 168 L 277 168 L 277 352.542969 L 3.703125 352.542969 Z M 3.703125 168 " clip-rule="nonzero"/></clipPath><clipPath id="5bfc8c5fe9"><path d="M 9 244 L 271 244 L 271 352.542969 L 9 352.542969 Z M 9 244 " clip-rule="nonzero"/></clipPath><clipPath id="4a59d69ac3"><path d="M 98 22.542969 L 371.203125 22.542969 L 371.203125 139 L 98 139 Z M 98 22.542969 " clip-rule="nonzero"/></clipPath><clipPath id="0ecb773d32"><path d="M 137 22.542969 L 371.203125 22.542969 L 371.203125 139 L 137 139 Z M 137 22.542969 " clip-rule="nonzero"/></clipPath></defs><g clip-path="url(#38333bd7fa)"><path fill="#ffc338" d="M 20.886719 168.710938 L 259.207031 168.710938 C 268.660156 168.710938 276.390625 176.445312 276.390625 185.902344 L 276.390625 335.386719 C 276.390625 344.828125 268.660156 352.5625 259.207031 352.5625 L 20.886719 352.5625 C 11.433594 352.5625 3.703125 344.828125 3.703125 335.386719 L 3.703125 185.902344 C 3.703125 176.445312 11.433594 168.710938 20.886719 168.710938 Z M 20.886719 168.710938 " fill-opacity="1" fill-rule="evenodd"/></g><g clip-path="url(#5bfc8c5fe9)"><path fill="#ffd064" d="M 270.738281 348.082031 C 267.695312 350.871094 263.636719 352.5625 259.207031 352.5625 L 20.886719 352.5625 C 16.457031 352.5625 12.398438 350.871094 9.339844 348.082031 L 140.046875 244.128906 Z M 270.738281 348.082031 " fill-opacity="1" fill-rule="evenodd"/></g><path fill="#ffe177" d="M 20.886719 168.710938 L 259.207031 168.710938 C 263.765625 168.710938 267.933594 170.515625 271.011719 173.449219 L 140.046875 288.871094 L 9.082031 173.449219 C 12.15625 170.515625 16.328125 168.710938 20.886719 168.710938 Z M 20.886719 168.710938 " fill-opacity="1" fill-rule="evenodd"/><g clip-path="url(#4a59d69ac3)"><path fill="#6cf5c2" d="M 128.148438 102.046875 L 113.007812 102.046875 C 105.003906 102.046875 98.515625 95.554688 98.515625 87.546875 L 98.515625 37.101562 C 98.515625 29.09375 105.003906 22.601562 113.007812 22.601562 L 356.710938 22.601562 C 364.714844 22.601562 371.203125 29.09375 371.203125 37.101562 L 371.203125 87.546875 C 371.203125 95.554688 364.714844 102.046875 356.710938 102.046875 L 179.488281 102.046875 C 179.488281 102.046875 154.34375 127.199219 143.683594 137.867188 C 142.71875 138.835938 141.308594 139.210938 139.988281 138.859375 C 138.664062 138.503906 137.632812 137.472656 137.28125 136.148438 C 134.222656 124.730469 128.148438 102.046875 128.148438 102.046875 Z M 128.148438 102.046875 " fill-opacity="1" fill-rule="evenodd"/></g><g clip-path="url(#0ecb773d32)"><path fill="#00e499" d="M 349.054688 22.601562 L 356.710938 22.601562 C 364.714844 22.601562 371.203125 29.09375 371.203125 37.101562 L 371.203125 87.546875 C 371.203125 95.554688 364.714844 102.046875 356.710938 102.046875 L 349.054688 102.046875 C 357.058594 102.046875 363.546875 95.554688 363.546875 87.546875 L 363.546875 37.101562 C 363.546875 29.09375 357.058594 22.601562 349.054688 22.601562 Z M 179.488281 102.046875 L 143.683594 137.867188 C 142.71875 138.835938 141.308594 139.210938 139.988281 138.859375 C 138.785156 138.535156 137.824219 137.652344 137.390625 136.5 L 171.832031 102.046875 Z M 179.488281 102.046875 " fill-opacity="1" fill-rule="evenodd"/></g><path fill="#eceff1" d="M 172.394531 51.707031 L 172.394531 44.261719 C 172.394531 40.878906 175.140625 38.132812 178.519531 38.132812 C 181.902344 38.132812 184.644531 40.878906 184.644531 44.261719 L 184.644531 51.707031 L 191.089844 47.984375 C 194.019531 46.292969 197.765625 47.300781 199.457031 50.226562 C 201.148438 53.15625 200.144531 56.910156 197.214844 58.597656 L 190.769531 62.324219 L 197.214844 66.046875 C 200.144531 67.738281 201.148438 71.488281 199.457031 74.417969 C 197.765625 77.347656 194.019531 78.351562 191.089844 76.660156 L 184.644531 72.9375 L 184.644531 80.382812 C 184.644531 83.765625 181.902344 86.511719 178.519531 86.511719 C 175.140625 86.511719 172.394531 83.765625 172.394531 80.382812 L 172.394531 72.9375 L 165.949219 76.660156 C 163.023438 78.351562 159.273438 77.347656 157.585938 74.417969 C 155.894531 71.488281 156.898438 67.738281 159.824219 66.046875 L 166.269531 62.324219 L 159.824219 58.597656 C 156.898438 56.910156 155.894531 53.15625 157.585938 50.226562 C 159.273438 47.300781 163.023438 46.292969 165.949219 47.984375 Z M 228.734375 51.707031 L 228.734375 44.261719 C 228.734375 40.878906 231.480469 38.132812 234.859375 38.132812 C 238.238281 38.132812 240.984375 40.878906 240.984375 44.261719 L 240.984375 51.707031 L 247.429688 47.984375 C 250.355469 46.292969 254.105469 47.300781 255.796875 50.226562 C 257.484375 53.15625 256.480469 56.910156 253.554688 58.597656 L 247.109375 62.324219 L 253.554688 66.046875 C 256.480469 67.738281 257.484375 71.488281 255.796875 74.417969 C 254.105469 77.347656 250.355469 78.351562 247.429688 76.660156 L 240.984375 72.9375 L 240.984375 80.382812 C 240.984375 83.765625 238.238281 86.511719 234.859375 86.511719 C 231.480469 86.511719 228.734375 83.765625 228.734375 80.382812 L 228.734375 72.9375 L 222.289062 76.660156 C 219.363281 78.351562 215.613281 77.347656 213.921875 74.417969 C 212.234375 71.488281 213.238281 67.738281 216.164062 66.046875 L 222.609375 62.324219 L 216.164062 58.597656 C 213.238281 56.910156 212.234375 53.15625 213.921875 50.226562 C 215.613281 47.300781 219.363281 46.292969 222.289062 47.984375 Z M 285.074219 51.707031 L 285.074219 44.261719 C 285.074219 40.878906 287.816406 38.132812 291.199219 38.132812 C 294.578125 38.132812 297.324219 40.878906 297.324219 44.261719 L 297.324219 51.707031 L 303.769531 47.984375 C 306.695312 46.292969 310.445312 47.300781 312.136719 50.226562 C 313.824219 53.15625 312.820312 56.910156 309.894531 58.597656 L 303.449219 62.324219 L 309.894531 66.046875 C 312.820312 67.738281 313.824219 71.488281 312.136719 74.417969 C 310.445312 77.347656 306.695312 78.351562 303.769531 76.660156 L 297.324219 72.9375 L 297.324219 80.382812 C 297.324219 83.765625 294.578125 86.511719 291.199219 86.511719 C 287.816406 86.511719 285.074219 83.765625 285.074219 80.382812 L 285.074219 72.9375 L 278.628906 76.660156 C 275.703125 78.351562 271.953125 77.347656 270.261719 74.417969 C 268.574219 71.488281 269.578125 67.738281 272.503906 66.046875 L 278.949219 62.324219 L 272.503906 58.597656 C 269.578125 56.910156 268.574219 53.15625 270.261719 50.226562 C 271.953125 47.300781 275.703125 46.292969 278.628906 47.984375 Z M 285.074219 51.707031 " fill-opacity="1" fill-rule="evenodd"/></svg>