<svg xmlns="http://www.w3.org/2000/svg" xmlns:xlink="http://www.w3.org/1999/xlink" width="500" zoomAndPan="magnify" viewBox="0 0 375 374.999991" height="500" preserveAspectRatio="xMidYMid meet" version="1.0"><defs><clipPath id="cf65ac1589"><path d="M 5.167969 5.167969 L 369.667969 5.167969 L 369.667969 369.667969 L 5.167969 369.667969 Z M 5.167969 5.167969 " clip-rule="nonzero"/></clipPath></defs><g clip-path="url(#cf65ac1589)"><path fill="#000000" d="M 369.667969 187.417969 C 369.667969 190.402344 369.59375 193.382812 369.449219 196.359375 C 369.300781 199.339844 369.082031 202.3125 368.789062 205.28125 C 368.496094 208.25 368.132812 211.210938 367.695312 214.160156 C 367.257812 217.109375 366.746094 220.046875 366.164062 222.972656 C 365.585938 225.898438 364.929688 228.808594 364.207031 231.699219 C 363.480469 234.59375 362.6875 237.46875 361.820312 240.320312 C 360.953125 243.175781 360.019531 246.007812 359.015625 248.816406 C 358.007812 251.625 356.9375 254.40625 355.792969 257.160156 C 354.652344 259.917969 353.445312 262.644531 352.167969 265.339844 C 350.894531 268.035156 349.554688 270.699219 348.148438 273.328125 C 346.742188 275.960938 345.273438 278.554688 343.738281 281.113281 C 342.207031 283.671875 340.609375 286.191406 338.953125 288.671875 C 337.296875 291.152344 335.578125 293.589844 333.800781 295.984375 C 332.027344 298.378906 330.191406 300.730469 328.300781 303.035156 C 326.40625 305.339844 324.460938 307.597656 322.457031 309.808594 C 320.453125 312.019531 318.398438 314.179688 316.289062 316.289062 C 314.179688 318.398438 312.019531 320.453125 309.808594 322.457031 C 307.597656 324.460938 305.339844 326.40625 303.035156 328.300781 C 300.730469 330.191406 298.378906 332.027344 295.984375 333.800781 C 293.589844 335.578125 291.152344 337.296875 288.671875 338.953125 C 286.191406 340.609375 283.671875 342.207031 281.113281 343.738281 C 278.554688 345.273438 275.960938 346.742188 273.328125 348.148438 C 270.699219 349.554688 268.035156 350.894531 265.339844 352.167969 C 262.644531 353.445312 259.917969 354.652344 257.160156 355.792969 C 254.40625 356.9375 251.625 358.007812 248.816406 359.015625 C 246.007812 360.019531 243.175781 360.953125 240.320312 361.820312 C 237.46875 362.6875 234.59375 363.480469 231.699219 364.207031 C 228.808594 364.929688 225.898438 365.585938 222.972656 366.164062 C 220.046875 366.746094 217.109375 367.257812 214.160156 367.695312 C 211.210938 368.132812 208.25 368.496094 205.28125 368.789062 C 202.3125 369.082031 199.339844 369.300781 196.359375 369.449219 C 193.382812 369.59375 190.402344 369.667969 187.417969 369.667969 C 184.433594 369.667969 181.453125 369.59375 178.476562 369.449219 C 175.496094 369.300781 172.523438 369.082031 169.554688 368.789062 C 166.585938 368.496094 163.625 368.132812 160.675781 367.695312 C 157.726562 367.257812 154.789062 366.746094 151.863281 366.164062 C 148.9375 365.585938 146.027344 364.929688 143.132812 364.207031 C 140.242188 363.480469 137.367188 362.6875 134.511719 361.820312 C 131.660156 360.953125 128.828125 360.019531 126.019531 359.015625 C 123.210938 358.007812 120.429688 356.9375 117.671875 355.792969 C 114.917969 354.652344 112.191406 353.445312 109.496094 352.167969 C 106.800781 350.894531 104.136719 349.554688 101.503906 348.148438 C 98.875 346.742188 96.28125 345.273438 93.722656 343.738281 C 91.164062 342.207031 88.644531 340.609375 86.164062 338.953125 C 83.683594 337.296875 81.246094 335.578125 78.851562 333.800781 C 76.457031 332.027344 74.105469 330.191406 71.800781 328.300781 C 69.492188 326.40625 67.234375 324.460938 65.027344 322.457031 C 62.816406 320.453125 60.65625 318.398438 58.546875 316.289062 C 56.4375 314.179688 54.382812 312.019531 52.378906 309.808594 C 50.375 307.597656 48.429688 305.339844 46.535156 303.035156 C 44.644531 300.730469 42.808594 298.378906 41.035156 295.984375 C 39.257812 293.589844 37.539062 291.152344 35.882812 288.671875 C 34.226562 286.191406 32.628906 283.671875 31.097656 281.113281 C 29.5625 278.554688 28.09375 275.960938 26.6875 273.328125 C 25.28125 270.699219 23.941406 268.035156 22.664062 265.339844 C 21.390625 262.644531 20.183594 259.917969 19.039062 257.160156 C 17.898438 254.40625 16.828125 251.625 15.820312 248.816406 C 14.816406 246.007812 13.882812 243.175781 13.015625 240.320312 C 12.148438 237.46875 11.355469 234.59375 10.628906 231.699219 C 9.90625 228.808594 9.25 225.898438 8.667969 222.972656 C 8.085938 220.046875 7.578125 217.109375 7.140625 214.160156 C 6.703125 211.210938 6.335938 208.25 6.046875 205.28125 C 5.753906 202.3125 5.535156 199.339844 5.386719 196.359375 C 5.242188 193.382812 5.167969 190.402344 5.167969 187.417969 C 5.167969 184.433594 5.242188 181.453125 5.386719 178.476562 C 5.535156 175.496094 5.753906 172.523438 6.046875 169.554688 C 6.335938 166.585938 6.703125 163.625 7.140625 160.675781 C 7.578125 157.726562 8.085938 154.789062 8.667969 151.863281 C 9.25 148.9375 9.90625 146.027344 10.628906 143.132812 C 11.355469 140.242188 12.148438 137.367188 13.015625 134.511719 C 13.882812 131.660156 14.816406 128.828125 15.820312 126.019531 C 16.828125 123.210938 17.898438 120.429688 19.039062 117.671875 C 20.183594 114.917969 21.390625 112.191406 22.664062 109.496094 C 23.941406 106.800781 25.28125 104.136719 26.6875 101.503906 C 28.09375 98.875 29.5625 96.28125 31.097656 93.722656 C 32.628906 91.164062 34.226562 88.644531 35.882812 86.164062 C 37.539062 83.683594 39.257812 81.246094 41.035156 78.851562 C 42.808594 76.457031 44.644531 74.105469 46.535156 71.800781 C 48.429688 69.492188 50.375 67.234375 52.378906 65.027344 C 54.382812 62.816406 56.4375 60.65625 58.546875 58.546875 C 60.65625 56.4375 62.816406 54.382812 65.027344 52.378906 C 67.234375 50.375 69.492188 48.429688 71.800781 46.535156 C 74.105469 44.644531 76.457031 42.808594 78.851562 41.035156 C 81.246094 39.257812 83.683594 37.539062 86.164062 35.882812 C 88.644531 34.226562 91.164062 32.628906 93.722656 31.097656 C 96.28125 29.5625 98.875 28.09375 101.503906 26.6875 C 104.136719 25.28125 106.800781 23.941406 109.496094 22.664062 C 112.191406 21.390625 114.917969 20.183594 117.671875 19.039062 C 120.429688 17.898438 123.210938 16.828125 126.019531 15.820312 C 128.828125 14.816406 131.660156 13.882812 134.511719 13.015625 C 137.367188 12.148438 140.242188 11.355469 143.132812 10.628906 C 146.027344 9.90625 148.9375 9.25 151.863281 8.667969 C 154.789062 8.085938 157.726562 7.578125 160.675781 7.140625 C 163.625 6.703125 166.585938 6.335938 169.554688 6.046875 C 172.523438 5.753906 175.496094 5.535156 178.476562 5.386719 C 181.453125 5.242188 184.433594 5.167969 187.417969 5.167969 C 190.402344 5.167969 193.382812 5.242188 196.359375 5.386719 C 199.339844 5.535156 202.3125 5.753906 205.28125 6.046875 C 208.25 6.335938 211.210938 6.703125 214.160156 7.140625 C 217.109375 7.578125 220.046875 8.085938 222.972656 8.667969 C 225.898438 9.25 228.808594 9.90625 231.699219 10.628906 C 234.59375 11.355469 237.46875 12.148438 240.320312 13.015625 C 243.175781 13.882812 246.007812 14.816406 248.816406 15.820312 C 251.625 16.828125 254.40625 17.898438 257.160156 19.039062 C 259.917969 20.183594 262.644531 21.390625 265.339844 22.664062 C 268.035156 23.941406 270.699219 25.28125 273.328125 26.6875 C 275.960938 28.09375 278.554688 29.5625 281.113281 31.097656 C 283.671875 32.628906 286.191406 34.226562 288.671875 35.882812 C 291.152344 37.539062 293.589844 39.257812 295.984375 41.035156 C 298.378906 42.808594 300.730469 44.644531 303.035156 46.535156 C 305.339844 48.429688 307.597656 50.375 309.808594 52.378906 C 312.019531 54.382812 314.179688 56.4375 316.289062 58.546875 C 318.398438 60.65625 320.453125 62.816406 322.457031 65.027344 C 324.460938 67.234375 326.40625 69.492188 328.300781 71.800781 C 330.191406 74.105469 332.027344 76.457031 333.800781 78.851562 C 335.578125 81.246094 337.296875 83.683594 338.953125 86.164062 C 340.609375 88.644531 342.207031 91.164062 343.738281 93.722656 C 345.273438 96.28125 346.742188 98.875 348.148438 101.503906 C 349.554688 104.136719 350.894531 106.800781 352.167969 109.496094 C 353.445312 112.191406 354.652344 114.917969 355.792969 117.671875 C 356.9375 120.429688 358.007812 123.210938 359.015625 126.019531 C 360.019531 128.828125 360.953125 131.660156 361.820312 134.511719 C 362.6875 137.367188 363.480469 140.242188 364.207031 143.132812 C 364.929688 146.027344 365.585938 148.9375 366.164062 151.863281 C 366.746094 154.789062 367.257812 157.726562 367.695312 160.675781 C 368.132812 163.625 368.496094 166.585938 368.789062 169.554688 C 369.082031 172.523438 369.300781 175.496094 369.449219 178.476562 C 369.59375 181.453125 369.667969 184.433594 369.667969 187.417969 Z M 369.667969 187.417969 " fill-opacity="1" fill-rule="nonzero"/></g><path fill="#ffffff" d="M 171.332031 218.523438 C 171.382812 222.03125 170.949219 225.476562 170.03125 228.863281 C 169.113281 232.25 167.75 235.445312 165.9375 238.449219 C 163.992188 241.535156 161.640625 244.277344 158.886719 246.671875 C 156.128906 249.0625 153.085938 251.003906 149.753906 252.492188 C 145.457031 254.289062 141.019531 255.597656 136.4375 256.417969 C 131.855469 257.238281 127.238281 257.550781 122.585938 257.351562 C 115.710938 257.429688 108.90625 256.765625 102.171875 255.359375 C 96.171875 254.019531 90.390625 252.042969 84.824219 249.429688 L 84.824219 221.777344 C 91.277344 224.742188 97.902344 227.253906 104.699219 229.3125 C 111.03125 231.289062 117.511719 232.308594 124.140625 232.371094 C 126.410156 232.582031 128.648438 232.410156 130.859375 231.851562 C 133.070312 231.289062 135.121094 230.378906 137.019531 229.117188 C 137.648438 228.609375 138.210938 228.039062 138.707031 227.402344 C 139.203125 226.765625 139.621094 226.078125 139.957031 225.34375 C 140.292969 224.613281 140.542969 223.847656 140.703125 223.058594 C 140.863281 222.265625 140.933594 221.46875 140.90625 220.660156 C 140.898438 219.617188 140.746094 218.597656 140.457031 217.59375 C 140.167969 216.59375 139.75 215.648438 139.199219 214.761719 C 138.652344 213.875 137.996094 213.078125 137.230469 212.371094 C 136.460938 211.664062 135.613281 211.074219 134.6875 210.601562 C 128.9375 207.238281 123.023438 204.191406 116.949219 201.464844 C 111.917969 199.023438 107.058594 196.285156 102.367188 193.25 C 97.601562 190.183594 93.746094 186.230469 90.800781 181.390625 C 89.183594 178.527344 87.992188 175.5 87.226562 172.304688 C 86.457031 169.109375 86.140625 165.867188 86.28125 162.582031 C 86.132812 159.960938 86.296875 157.359375 86.773438 154.777344 C 87.253906 152.195312 88.03125 149.707031 89.109375 147.3125 C 90.191406 144.917969 91.539062 142.6875 93.15625 140.617188 C 94.773438 138.546875 96.613281 136.699219 98.675781 135.074219 C 101.085938 133.375 103.617188 131.882812 106.277344 130.601562 C 108.933594 129.320312 111.679688 128.269531 114.507812 127.441406 C 117.339844 126.613281 120.222656 126.027344 123.152344 125.675781 C 126.082031 125.324219 129.019531 125.21875 131.964844 125.355469 C 138.992188 125.292969 145.910156 126.136719 152.71875 127.882812 C 159.089844 129.558594 165.292969 131.710938 171.332031 134.347656 L 161.609375 158.257812 C 156.394531 155.914062 151.03125 153.96875 145.523438 152.425781 C 140.757812 151.082031 135.898438 150.402344 130.945312 150.382812 C 129 150.226562 127.089844 150.40625 125.210938 150.921875 C 123.332031 151.441406 121.597656 152.265625 120.007812 153.398438 C 118.847656 154.339844 117.949219 155.488281 117.320312 156.847656 C 116.6875 158.203125 116.386719 159.628906 116.414062 161.125 C 116.398438 162.34375 116.605469 163.523438 117.03125 164.664062 C 117.460938 165.804688 118.078125 166.828125 118.890625 167.734375 C 121.160156 170.113281 123.75 172.054688 126.667969 173.566406 C 130.265625 175.511719 135.027344 177.84375 140.90625 180.566406 C 146.675781 183.113281 152.136719 186.207031 157.285156 189.847656 C 161.699219 192.980469 165.183594 196.933594 167.734375 201.707031 C 169.011719 204.320312 169.953125 207.050781 170.558594 209.894531 C 171.167969 212.738281 171.425781 215.613281 171.332031 218.523438 Z M 232.664062 127.347656 C 267.171875 127.347656 284.421875 140.113281 284.421875 165.644531 C 284.570312 169.394531 284.078125 173.058594 282.953125 176.640625 C 281.828125 180.21875 280.128906 183.503906 277.863281 186.496094 C 273.367188 192.140625 267.890625 196.582031 261.4375 199.8125 L 299.003906 255.75 L 264.644531 255.75 L 235.484375 207.539062 L 223.867188 207.539062 L 223.867188 255.75 L 193.105469 255.75 L 193.105469 127.347656 Z M 231.402344 151.648438 L 223.867188 151.648438 L 223.867188 183.820312 L 231.59375 183.820312 C 234.476562 184.03125 237.320312 183.792969 240.128906 183.101562 C 242.933594 182.414062 245.566406 181.308594 248.023438 179.789062 C 248.964844 179.023438 249.804688 178.152344 250.539062 177.183594 C 251.269531 176.214844 251.875 175.167969 252.355469 174.050781 C 252.832031 172.933594 253.171875 171.773438 253.367188 170.574219 C 253.5625 169.375 253.613281 168.167969 253.515625 166.957031 C 253.605469 165.835938 253.550781 164.71875 253.355469 163.609375 C 253.164062 162.5 252.832031 161.429688 252.363281 160.40625 C 251.894531 159.382812 251.304688 158.429688 250.59375 157.558594 C 249.886719 156.683594 249.074219 155.910156 248.167969 155.246094 C 245.628906 153.785156 242.929688 152.730469 240.070312 152.085938 C 237.210938 151.4375 234.324219 151.230469 231.402344 151.453125 Z M 231.402344 151.648438 " fill-opacity="1" fill-rule="nonzero"/></svg>